%FSLAX34Y34*%
G04 Gerber Fmt 3.4, Leading zero omitted, Abs format*
G04 (created by PCBNEW (2014-01-30 BZR 4648)-product) date Sat Mar  1 14:05:08 2014*
%MOIN*%
G01*
G70*
G90*
G04 APERTURE LIST*
%ADD10C,0.013780*%
%ADD11C,0.433071*%
%ADD12C,0.118110*%
%ADD13C,0.059055*%
%ADD14C,0.086614*%
%ADD15C,0.098425*%
%ADD16C,0.033858*%
%ADD17C,0.012000*%
%ADD18C,0.013780*%
G04 APERTURE END LIST*
G54D10*
G54D11*
X4250Y13750D03*
X11750Y13750D03*
G54D12*
X2250Y7425D03*
X2250Y9000D03*
X2250Y10574D03*
G54D13*
X12875Y7500D03*
X12875Y10500D03*
X13875Y7500D03*
X13875Y10500D03*
X7875Y10500D03*
X6875Y10500D03*
X5875Y10500D03*
X4875Y10500D03*
X8875Y10500D03*
X9875Y10500D03*
X10875Y10500D03*
X4875Y7500D03*
X5875Y7500D03*
X6875Y7500D03*
X7875Y7500D03*
X8875Y7500D03*
X9875Y7500D03*
X10875Y7500D03*
G54D14*
X5218Y1500D03*
X1281Y1500D03*
G54D13*
X11875Y10500D03*
X11875Y7500D03*
G54D15*
X14545Y1318D03*
X7726Y5255D03*
G54D16*
X7250Y8750D03*
G54D17*
X6875Y10500D02*
X7375Y11000D01*
X13375Y11000D02*
X13875Y10500D01*
X7375Y11000D02*
X13375Y11000D01*
X12875Y7500D02*
X13875Y8500D01*
X13875Y8500D02*
X13875Y10500D01*
X13875Y7500D02*
X14500Y8125D01*
X14500Y11000D02*
X11750Y13750D01*
X14500Y8125D02*
X14500Y11000D01*
X9000Y9625D02*
X9875Y10500D01*
X8125Y9625D02*
X9000Y9625D01*
X7250Y8750D02*
X8125Y9625D01*
X6375Y7000D02*
X5218Y5843D01*
X5218Y5843D02*
X5218Y1500D01*
X5875Y7500D02*
X6375Y7000D01*
X7375Y7000D02*
X7875Y7500D01*
X6375Y7000D02*
X7375Y7000D01*
X7875Y7500D02*
X8375Y7000D01*
X8375Y7000D02*
X9375Y7000D01*
X9375Y7000D02*
X9875Y7500D01*
X6875Y7500D02*
X7375Y8000D01*
X8375Y8000D02*
X8875Y7500D01*
X7375Y8000D02*
X8375Y8000D01*
X7875Y10500D02*
X7875Y10125D01*
X6000Y8250D02*
X6000Y8000D01*
X7875Y10125D02*
X6000Y8250D01*
X4875Y7500D02*
X5375Y8000D01*
X6375Y8000D02*
X6875Y7500D01*
X5375Y8000D02*
X6000Y8000D01*
X6000Y8000D02*
X6375Y8000D01*
G54D10*
G36*
X15690Y310D02*
X15230Y310D01*
X15230Y1330D01*
X15177Y1425D01*
X15145Y1417D01*
X15145Y1541D01*
X15144Y1651D01*
X14972Y1855D01*
X14740Y1974D01*
X14740Y8125D01*
X14740Y11000D01*
X14721Y11091D01*
X14669Y11169D01*
X13578Y12261D01*
X13737Y12419D01*
X14094Y13281D01*
X14095Y14214D01*
X13739Y15076D01*
X13080Y15737D01*
X12218Y16094D01*
X11285Y16095D01*
X10423Y15739D01*
X9762Y15080D01*
X9405Y14218D01*
X9404Y13285D01*
X9760Y12423D01*
X10419Y11762D01*
X11281Y11405D01*
X12214Y11404D01*
X13076Y11760D01*
X13238Y11922D01*
X14260Y10900D01*
X14260Y10787D01*
X14144Y10902D01*
X13969Y10975D01*
X13780Y10975D01*
X13751Y10963D01*
X13544Y11169D01*
X13466Y11221D01*
X13375Y11240D01*
X7375Y11240D01*
X7283Y11221D01*
X7205Y11169D01*
X6998Y10963D01*
X6969Y10975D01*
X6780Y10975D01*
X6606Y10903D01*
X6595Y10892D01*
X6595Y14214D01*
X6239Y15076D01*
X5580Y15737D01*
X4718Y16094D01*
X3785Y16095D01*
X2923Y15739D01*
X2262Y15080D01*
X1905Y14218D01*
X1904Y13285D01*
X2260Y12423D01*
X2919Y11762D01*
X3781Y11405D01*
X4714Y11404D01*
X5576Y11760D01*
X6237Y12419D01*
X6594Y13281D01*
X6595Y14214D01*
X6595Y10892D01*
X6472Y10769D01*
X6399Y10594D01*
X6399Y10405D01*
X6471Y10231D01*
X6605Y10097D01*
X6780Y10024D01*
X6969Y10024D01*
X7143Y10096D01*
X7277Y10230D01*
X7350Y10405D01*
X7350Y10594D01*
X7338Y10623D01*
X7464Y10749D01*
X7399Y10594D01*
X7399Y10405D01*
X7471Y10231D01*
X7556Y10146D01*
X6350Y8939D01*
X6350Y10594D01*
X6278Y10768D01*
X6144Y10902D01*
X5969Y10975D01*
X5780Y10975D01*
X5606Y10903D01*
X5472Y10769D01*
X5399Y10594D01*
X5399Y10405D01*
X5471Y10231D01*
X5605Y10097D01*
X5780Y10024D01*
X5969Y10024D01*
X6143Y10096D01*
X6277Y10230D01*
X6350Y10405D01*
X6350Y10594D01*
X6350Y8939D01*
X5830Y8419D01*
X5778Y8341D01*
X5760Y8250D01*
X5760Y8240D01*
X5375Y8240D01*
X5350Y8235D01*
X5350Y10594D01*
X5278Y10768D01*
X5144Y10902D01*
X4969Y10975D01*
X4780Y10975D01*
X4606Y10903D01*
X4472Y10769D01*
X4399Y10594D01*
X4399Y10405D01*
X4471Y10231D01*
X4605Y10097D01*
X4780Y10024D01*
X4969Y10024D01*
X5143Y10096D01*
X5277Y10230D01*
X5350Y10405D01*
X5350Y10594D01*
X5350Y8235D01*
X5283Y8221D01*
X5205Y8169D01*
X4998Y7963D01*
X4969Y7975D01*
X4780Y7975D01*
X4606Y7903D01*
X4472Y7769D01*
X4399Y7594D01*
X4399Y7405D01*
X4471Y7231D01*
X4605Y7097D01*
X4780Y7024D01*
X4969Y7024D01*
X5143Y7096D01*
X5277Y7230D01*
X5350Y7405D01*
X5350Y7594D01*
X5338Y7623D01*
X5464Y7749D01*
X5399Y7594D01*
X5399Y7405D01*
X5471Y7231D01*
X5605Y7097D01*
X5780Y7024D01*
X5969Y7024D01*
X5998Y7036D01*
X6035Y7000D01*
X5048Y6013D01*
X4996Y5935D01*
X4978Y5843D01*
X4978Y2064D01*
X4871Y2020D01*
X4699Y1847D01*
X4605Y1622D01*
X4605Y1378D01*
X4698Y1153D01*
X4870Y980D01*
X5096Y887D01*
X5339Y886D01*
X5565Y979D01*
X5737Y1152D01*
X5831Y1377D01*
X5831Y1621D01*
X5738Y1846D01*
X5566Y2019D01*
X5458Y2064D01*
X5458Y5744D01*
X6474Y6760D01*
X7375Y6760D01*
X7466Y6778D01*
X7544Y6830D01*
X7751Y7036D01*
X7780Y7024D01*
X7969Y7024D01*
X7998Y7036D01*
X8205Y6830D01*
X8283Y6778D01*
X8375Y6760D01*
X9375Y6760D01*
X9466Y6778D01*
X9544Y6830D01*
X9751Y7036D01*
X9780Y7024D01*
X9969Y7024D01*
X10143Y7096D01*
X10277Y7230D01*
X10350Y7405D01*
X10350Y7594D01*
X10278Y7768D01*
X10144Y7902D01*
X9969Y7975D01*
X9780Y7975D01*
X9606Y7903D01*
X9472Y7769D01*
X9399Y7594D01*
X9399Y7405D01*
X9411Y7376D01*
X9285Y7250D01*
X9350Y7405D01*
X9350Y7594D01*
X9278Y7768D01*
X9144Y7902D01*
X8969Y7975D01*
X8780Y7975D01*
X8751Y7963D01*
X8544Y8169D01*
X8466Y8221D01*
X8375Y8240D01*
X7375Y8240D01*
X7283Y8221D01*
X7205Y8169D01*
X6998Y7963D01*
X6969Y7975D01*
X6780Y7975D01*
X6751Y7963D01*
X6544Y8169D01*
X6466Y8221D01*
X6375Y8240D01*
X6329Y8240D01*
X6900Y8811D01*
X6900Y8680D01*
X6953Y8552D01*
X7051Y8454D01*
X7180Y8400D01*
X7319Y8400D01*
X7447Y8453D01*
X7545Y8551D01*
X7599Y8680D01*
X7599Y8759D01*
X8224Y9385D01*
X9000Y9385D01*
X9091Y9403D01*
X9169Y9455D01*
X9751Y10036D01*
X9780Y10024D01*
X9969Y10024D01*
X10143Y10096D01*
X10277Y10230D01*
X10350Y10405D01*
X10350Y10594D01*
X10281Y10760D01*
X10468Y10760D01*
X10399Y10594D01*
X10399Y10405D01*
X10471Y10231D01*
X10605Y10097D01*
X10780Y10024D01*
X10969Y10024D01*
X11143Y10096D01*
X11277Y10230D01*
X11350Y10405D01*
X11350Y10594D01*
X11281Y10760D01*
X11468Y10760D01*
X11399Y10594D01*
X11399Y10405D01*
X11471Y10231D01*
X11605Y10097D01*
X11780Y10024D01*
X11969Y10024D01*
X12143Y10096D01*
X12277Y10230D01*
X12350Y10405D01*
X12350Y10594D01*
X12281Y10760D01*
X12468Y10760D01*
X12399Y10594D01*
X12399Y10405D01*
X12471Y10231D01*
X12605Y10097D01*
X12780Y10024D01*
X12969Y10024D01*
X13143Y10096D01*
X13277Y10230D01*
X13350Y10405D01*
X13350Y10594D01*
X13286Y10749D01*
X13411Y10623D01*
X13399Y10594D01*
X13399Y10405D01*
X13471Y10231D01*
X13605Y10097D01*
X13635Y10085D01*
X13635Y8599D01*
X12998Y7963D01*
X12969Y7975D01*
X12780Y7975D01*
X12606Y7903D01*
X12472Y7769D01*
X12399Y7594D01*
X12399Y7405D01*
X12471Y7231D01*
X12605Y7097D01*
X12780Y7024D01*
X12969Y7024D01*
X13143Y7096D01*
X13277Y7230D01*
X13350Y7405D01*
X13350Y7594D01*
X13338Y7623D01*
X13464Y7749D01*
X13399Y7594D01*
X13399Y7405D01*
X13471Y7231D01*
X13605Y7097D01*
X13780Y7024D01*
X13969Y7024D01*
X14143Y7096D01*
X14277Y7230D01*
X14350Y7405D01*
X14350Y7594D01*
X14338Y7623D01*
X14669Y7955D01*
X14721Y8033D01*
X14740Y8125D01*
X14740Y1974D01*
X14734Y1977D01*
X14534Y2004D01*
X14438Y1950D01*
X14588Y1392D01*
X15145Y1541D01*
X15145Y1417D01*
X14619Y1276D01*
X14768Y718D01*
X14878Y719D01*
X15082Y892D01*
X15204Y1130D01*
X15230Y1330D01*
X15230Y310D01*
X14652Y310D01*
X14652Y687D01*
X14503Y1245D01*
X14472Y1237D01*
X14472Y1361D01*
X14322Y1919D01*
X14213Y1918D01*
X14009Y1745D01*
X13886Y1507D01*
X13860Y1307D01*
X13914Y1211D01*
X14472Y1361D01*
X14472Y1237D01*
X13945Y1095D01*
X13946Y986D01*
X14119Y782D01*
X14357Y660D01*
X14557Y633D01*
X14652Y687D01*
X14652Y310D01*
X12350Y310D01*
X12350Y7594D01*
X12278Y7768D01*
X12144Y7902D01*
X11969Y7975D01*
X11780Y7975D01*
X11606Y7903D01*
X11472Y7769D01*
X11399Y7594D01*
X11399Y7405D01*
X11471Y7231D01*
X11605Y7097D01*
X11780Y7024D01*
X11969Y7024D01*
X12143Y7096D01*
X12277Y7230D01*
X12350Y7405D01*
X12350Y7594D01*
X12350Y310D01*
X11356Y310D01*
X11356Y7446D01*
X11340Y7634D01*
X11299Y7734D01*
X11225Y7765D01*
X11140Y7680D01*
X11140Y7850D01*
X11109Y7924D01*
X10928Y7981D01*
X10740Y7965D01*
X10640Y7924D01*
X10609Y7850D01*
X10875Y7584D01*
X11140Y7850D01*
X11140Y7680D01*
X10959Y7500D01*
X11225Y7234D01*
X11299Y7265D01*
X11356Y7446D01*
X11356Y310D01*
X11140Y310D01*
X11140Y7149D01*
X10875Y7415D01*
X10790Y7330D01*
X10790Y7500D01*
X10524Y7765D01*
X10450Y7734D01*
X10393Y7553D01*
X10409Y7365D01*
X10450Y7265D01*
X10524Y7234D01*
X10790Y7500D01*
X10790Y7330D01*
X10609Y7149D01*
X10640Y7075D01*
X10821Y7018D01*
X11009Y7034D01*
X11109Y7075D01*
X11140Y7149D01*
X11140Y310D01*
X8398Y310D01*
X8398Y5389D01*
X8296Y5636D01*
X8107Y5825D01*
X7860Y5927D01*
X7593Y5928D01*
X7346Y5826D01*
X7157Y5637D01*
X7054Y5390D01*
X7054Y5122D01*
X7156Y4875D01*
X7345Y4686D01*
X7592Y4583D01*
X7859Y4583D01*
X8106Y4685D01*
X8296Y4874D01*
X8398Y5121D01*
X8398Y5389D01*
X8398Y310D01*
X3020Y310D01*
X3020Y7577D01*
X3020Y9152D01*
X3020Y10727D01*
X2903Y11010D01*
X2687Y11227D01*
X2403Y11345D01*
X2097Y11345D01*
X1814Y11228D01*
X1597Y11011D01*
X1479Y10728D01*
X1479Y10422D01*
X1596Y10138D01*
X1812Y9921D01*
X2096Y9804D01*
X2402Y9804D01*
X2685Y9921D01*
X2902Y10137D01*
X3020Y10420D01*
X3020Y10727D01*
X3020Y9152D01*
X2903Y9435D01*
X2687Y9652D01*
X2403Y9770D01*
X2097Y9770D01*
X1814Y9653D01*
X1597Y9437D01*
X1479Y9153D01*
X1479Y8847D01*
X1596Y8564D01*
X1812Y8347D01*
X2096Y8229D01*
X2402Y8229D01*
X2685Y8346D01*
X2902Y8562D01*
X3020Y8846D01*
X3020Y9152D01*
X3020Y7577D01*
X2903Y7861D01*
X2687Y8078D01*
X2403Y8195D01*
X2097Y8195D01*
X1814Y8078D01*
X1597Y7862D01*
X1479Y7579D01*
X1479Y7272D01*
X1596Y6989D01*
X1812Y6772D01*
X2096Y6654D01*
X2402Y6654D01*
X2685Y6771D01*
X2902Y6988D01*
X3020Y7271D01*
X3020Y7577D01*
X3020Y310D01*
X1900Y310D01*
X1900Y1413D01*
X1886Y1656D01*
X1820Y1817D01*
X1731Y1865D01*
X1647Y1780D01*
X1647Y1950D01*
X1598Y2038D01*
X1368Y2119D01*
X1124Y2105D01*
X964Y2038D01*
X915Y1950D01*
X1281Y1584D01*
X1647Y1950D01*
X1647Y1780D01*
X1366Y1500D01*
X1731Y1134D01*
X1820Y1182D01*
X1900Y1413D01*
X1900Y310D01*
X1647Y310D01*
X1647Y1049D01*
X1281Y1415D01*
X1196Y1330D01*
X1196Y1500D01*
X831Y1865D01*
X742Y1817D01*
X662Y1586D01*
X676Y1343D01*
X742Y1182D01*
X831Y1134D01*
X1196Y1500D01*
X1196Y1330D01*
X915Y1049D01*
X964Y961D01*
X1194Y880D01*
X1438Y894D01*
X1598Y961D01*
X1647Y1049D01*
X1647Y310D01*
X310Y310D01*
X310Y16440D01*
X15690Y16440D01*
X15690Y310D01*
X15690Y310D01*
G37*
G54D17*
X15690Y310D02*
X15230Y310D01*
X15230Y1330D01*
X15177Y1425D01*
X15145Y1417D01*
X15145Y1541D01*
X15144Y1651D01*
X14972Y1855D01*
X14740Y1974D01*
X14740Y8125D01*
X14740Y11000D01*
X14721Y11091D01*
X14669Y11169D01*
X13578Y12261D01*
X13737Y12419D01*
X14094Y13281D01*
X14095Y14214D01*
X13739Y15076D01*
X13080Y15737D01*
X12218Y16094D01*
X11285Y16095D01*
X10423Y15739D01*
X9762Y15080D01*
X9405Y14218D01*
X9404Y13285D01*
X9760Y12423D01*
X10419Y11762D01*
X11281Y11405D01*
X12214Y11404D01*
X13076Y11760D01*
X13238Y11922D01*
X14260Y10900D01*
X14260Y10787D01*
X14144Y10902D01*
X13969Y10975D01*
X13780Y10975D01*
X13751Y10963D01*
X13544Y11169D01*
X13466Y11221D01*
X13375Y11240D01*
X7375Y11240D01*
X7283Y11221D01*
X7205Y11169D01*
X6998Y10963D01*
X6969Y10975D01*
X6780Y10975D01*
X6606Y10903D01*
X6595Y10892D01*
X6595Y14214D01*
X6239Y15076D01*
X5580Y15737D01*
X4718Y16094D01*
X3785Y16095D01*
X2923Y15739D01*
X2262Y15080D01*
X1905Y14218D01*
X1904Y13285D01*
X2260Y12423D01*
X2919Y11762D01*
X3781Y11405D01*
X4714Y11404D01*
X5576Y11760D01*
X6237Y12419D01*
X6594Y13281D01*
X6595Y14214D01*
X6595Y10892D01*
X6472Y10769D01*
X6399Y10594D01*
X6399Y10405D01*
X6471Y10231D01*
X6605Y10097D01*
X6780Y10024D01*
X6969Y10024D01*
X7143Y10096D01*
X7277Y10230D01*
X7350Y10405D01*
X7350Y10594D01*
X7338Y10623D01*
X7464Y10749D01*
X7399Y10594D01*
X7399Y10405D01*
X7471Y10231D01*
X7556Y10146D01*
X6350Y8939D01*
X6350Y10594D01*
X6278Y10768D01*
X6144Y10902D01*
X5969Y10975D01*
X5780Y10975D01*
X5606Y10903D01*
X5472Y10769D01*
X5399Y10594D01*
X5399Y10405D01*
X5471Y10231D01*
X5605Y10097D01*
X5780Y10024D01*
X5969Y10024D01*
X6143Y10096D01*
X6277Y10230D01*
X6350Y10405D01*
X6350Y10594D01*
X6350Y8939D01*
X5830Y8419D01*
X5778Y8341D01*
X5760Y8250D01*
X5760Y8240D01*
X5375Y8240D01*
X5350Y8235D01*
X5350Y10594D01*
X5278Y10768D01*
X5144Y10902D01*
X4969Y10975D01*
X4780Y10975D01*
X4606Y10903D01*
X4472Y10769D01*
X4399Y10594D01*
X4399Y10405D01*
X4471Y10231D01*
X4605Y10097D01*
X4780Y10024D01*
X4969Y10024D01*
X5143Y10096D01*
X5277Y10230D01*
X5350Y10405D01*
X5350Y10594D01*
X5350Y8235D01*
X5283Y8221D01*
X5205Y8169D01*
X4998Y7963D01*
X4969Y7975D01*
X4780Y7975D01*
X4606Y7903D01*
X4472Y7769D01*
X4399Y7594D01*
X4399Y7405D01*
X4471Y7231D01*
X4605Y7097D01*
X4780Y7024D01*
X4969Y7024D01*
X5143Y7096D01*
X5277Y7230D01*
X5350Y7405D01*
X5350Y7594D01*
X5338Y7623D01*
X5464Y7749D01*
X5399Y7594D01*
X5399Y7405D01*
X5471Y7231D01*
X5605Y7097D01*
X5780Y7024D01*
X5969Y7024D01*
X5998Y7036D01*
X6035Y7000D01*
X5048Y6013D01*
X4996Y5935D01*
X4978Y5843D01*
X4978Y2064D01*
X4871Y2020D01*
X4699Y1847D01*
X4605Y1622D01*
X4605Y1378D01*
X4698Y1153D01*
X4870Y980D01*
X5096Y887D01*
X5339Y886D01*
X5565Y979D01*
X5737Y1152D01*
X5831Y1377D01*
X5831Y1621D01*
X5738Y1846D01*
X5566Y2019D01*
X5458Y2064D01*
X5458Y5744D01*
X6474Y6760D01*
X7375Y6760D01*
X7466Y6778D01*
X7544Y6830D01*
X7751Y7036D01*
X7780Y7024D01*
X7969Y7024D01*
X7998Y7036D01*
X8205Y6830D01*
X8283Y6778D01*
X8375Y6760D01*
X9375Y6760D01*
X9466Y6778D01*
X9544Y6830D01*
X9751Y7036D01*
X9780Y7024D01*
X9969Y7024D01*
X10143Y7096D01*
X10277Y7230D01*
X10350Y7405D01*
X10350Y7594D01*
X10278Y7768D01*
X10144Y7902D01*
X9969Y7975D01*
X9780Y7975D01*
X9606Y7903D01*
X9472Y7769D01*
X9399Y7594D01*
X9399Y7405D01*
X9411Y7376D01*
X9285Y7250D01*
X9350Y7405D01*
X9350Y7594D01*
X9278Y7768D01*
X9144Y7902D01*
X8969Y7975D01*
X8780Y7975D01*
X8751Y7963D01*
X8544Y8169D01*
X8466Y8221D01*
X8375Y8240D01*
X7375Y8240D01*
X7283Y8221D01*
X7205Y8169D01*
X6998Y7963D01*
X6969Y7975D01*
X6780Y7975D01*
X6751Y7963D01*
X6544Y8169D01*
X6466Y8221D01*
X6375Y8240D01*
X6329Y8240D01*
X6900Y8811D01*
X6900Y8680D01*
X6953Y8552D01*
X7051Y8454D01*
X7180Y8400D01*
X7319Y8400D01*
X7447Y8453D01*
X7545Y8551D01*
X7599Y8680D01*
X7599Y8759D01*
X8224Y9385D01*
X9000Y9385D01*
X9091Y9403D01*
X9169Y9455D01*
X9751Y10036D01*
X9780Y10024D01*
X9969Y10024D01*
X10143Y10096D01*
X10277Y10230D01*
X10350Y10405D01*
X10350Y10594D01*
X10281Y10760D01*
X10468Y10760D01*
X10399Y10594D01*
X10399Y10405D01*
X10471Y10231D01*
X10605Y10097D01*
X10780Y10024D01*
X10969Y10024D01*
X11143Y10096D01*
X11277Y10230D01*
X11350Y10405D01*
X11350Y10594D01*
X11281Y10760D01*
X11468Y10760D01*
X11399Y10594D01*
X11399Y10405D01*
X11471Y10231D01*
X11605Y10097D01*
X11780Y10024D01*
X11969Y10024D01*
X12143Y10096D01*
X12277Y10230D01*
X12350Y10405D01*
X12350Y10594D01*
X12281Y10760D01*
X12468Y10760D01*
X12399Y10594D01*
X12399Y10405D01*
X12471Y10231D01*
X12605Y10097D01*
X12780Y10024D01*
X12969Y10024D01*
X13143Y10096D01*
X13277Y10230D01*
X13350Y10405D01*
X13350Y10594D01*
X13286Y10749D01*
X13411Y10623D01*
X13399Y10594D01*
X13399Y10405D01*
X13471Y10231D01*
X13605Y10097D01*
X13635Y10085D01*
X13635Y8599D01*
X12998Y7963D01*
X12969Y7975D01*
X12780Y7975D01*
X12606Y7903D01*
X12472Y7769D01*
X12399Y7594D01*
X12399Y7405D01*
X12471Y7231D01*
X12605Y7097D01*
X12780Y7024D01*
X12969Y7024D01*
X13143Y7096D01*
X13277Y7230D01*
X13350Y7405D01*
X13350Y7594D01*
X13338Y7623D01*
X13464Y7749D01*
X13399Y7594D01*
X13399Y7405D01*
X13471Y7231D01*
X13605Y7097D01*
X13780Y7024D01*
X13969Y7024D01*
X14143Y7096D01*
X14277Y7230D01*
X14350Y7405D01*
X14350Y7594D01*
X14338Y7623D01*
X14669Y7955D01*
X14721Y8033D01*
X14740Y8125D01*
X14740Y1974D01*
X14734Y1977D01*
X14534Y2004D01*
X14438Y1950D01*
X14588Y1392D01*
X15145Y1541D01*
X15145Y1417D01*
X14619Y1276D01*
X14768Y718D01*
X14878Y719D01*
X15082Y892D01*
X15204Y1130D01*
X15230Y1330D01*
X15230Y310D01*
X14652Y310D01*
X14652Y687D01*
X14503Y1245D01*
X14472Y1237D01*
X14472Y1361D01*
X14322Y1919D01*
X14213Y1918D01*
X14009Y1745D01*
X13886Y1507D01*
X13860Y1307D01*
X13914Y1211D01*
X14472Y1361D01*
X14472Y1237D01*
X13945Y1095D01*
X13946Y986D01*
X14119Y782D01*
X14357Y660D01*
X14557Y633D01*
X14652Y687D01*
X14652Y310D01*
X12350Y310D01*
X12350Y7594D01*
X12278Y7768D01*
X12144Y7902D01*
X11969Y7975D01*
X11780Y7975D01*
X11606Y7903D01*
X11472Y7769D01*
X11399Y7594D01*
X11399Y7405D01*
X11471Y7231D01*
X11605Y7097D01*
X11780Y7024D01*
X11969Y7024D01*
X12143Y7096D01*
X12277Y7230D01*
X12350Y7405D01*
X12350Y7594D01*
X12350Y310D01*
X11356Y310D01*
X11356Y7446D01*
X11340Y7634D01*
X11299Y7734D01*
X11225Y7765D01*
X11140Y7680D01*
X11140Y7850D01*
X11109Y7924D01*
X10928Y7981D01*
X10740Y7965D01*
X10640Y7924D01*
X10609Y7850D01*
X10875Y7584D01*
X11140Y7850D01*
X11140Y7680D01*
X10959Y7500D01*
X11225Y7234D01*
X11299Y7265D01*
X11356Y7446D01*
X11356Y310D01*
X11140Y310D01*
X11140Y7149D01*
X10875Y7415D01*
X10790Y7330D01*
X10790Y7500D01*
X10524Y7765D01*
X10450Y7734D01*
X10393Y7553D01*
X10409Y7365D01*
X10450Y7265D01*
X10524Y7234D01*
X10790Y7500D01*
X10790Y7330D01*
X10609Y7149D01*
X10640Y7075D01*
X10821Y7018D01*
X11009Y7034D01*
X11109Y7075D01*
X11140Y7149D01*
X11140Y310D01*
X8398Y310D01*
X8398Y5389D01*
X8296Y5636D01*
X8107Y5825D01*
X7860Y5927D01*
X7593Y5928D01*
X7346Y5826D01*
X7157Y5637D01*
X7054Y5390D01*
X7054Y5122D01*
X7156Y4875D01*
X7345Y4686D01*
X7592Y4583D01*
X7859Y4583D01*
X8106Y4685D01*
X8296Y4874D01*
X8398Y5121D01*
X8398Y5389D01*
X8398Y310D01*
X3020Y310D01*
X3020Y7577D01*
X3020Y9152D01*
X3020Y10727D01*
X2903Y11010D01*
X2687Y11227D01*
X2403Y11345D01*
X2097Y11345D01*
X1814Y11228D01*
X1597Y11011D01*
X1479Y10728D01*
X1479Y10422D01*
X1596Y10138D01*
X1812Y9921D01*
X2096Y9804D01*
X2402Y9804D01*
X2685Y9921D01*
X2902Y10137D01*
X3020Y10420D01*
X3020Y10727D01*
X3020Y9152D01*
X2903Y9435D01*
X2687Y9652D01*
X2403Y9770D01*
X2097Y9770D01*
X1814Y9653D01*
X1597Y9437D01*
X1479Y9153D01*
X1479Y8847D01*
X1596Y8564D01*
X1812Y8347D01*
X2096Y8229D01*
X2402Y8229D01*
X2685Y8346D01*
X2902Y8562D01*
X3020Y8846D01*
X3020Y9152D01*
X3020Y7577D01*
X2903Y7861D01*
X2687Y8078D01*
X2403Y8195D01*
X2097Y8195D01*
X1814Y8078D01*
X1597Y7862D01*
X1479Y7579D01*
X1479Y7272D01*
X1596Y6989D01*
X1812Y6772D01*
X2096Y6654D01*
X2402Y6654D01*
X2685Y6771D01*
X2902Y6988D01*
X3020Y7271D01*
X3020Y7577D01*
X3020Y310D01*
X1900Y310D01*
X1900Y1413D01*
X1886Y1656D01*
X1820Y1817D01*
X1731Y1865D01*
X1647Y1780D01*
X1647Y1950D01*
X1598Y2038D01*
X1368Y2119D01*
X1124Y2105D01*
X964Y2038D01*
X915Y1950D01*
X1281Y1584D01*
X1647Y1950D01*
X1647Y1780D01*
X1366Y1500D01*
X1731Y1134D01*
X1820Y1182D01*
X1900Y1413D01*
X1900Y310D01*
X1647Y310D01*
X1647Y1049D01*
X1281Y1415D01*
X1196Y1330D01*
X1196Y1500D01*
X831Y1865D01*
X742Y1817D01*
X662Y1586D01*
X676Y1343D01*
X742Y1182D01*
X831Y1134D01*
X1196Y1500D01*
X1196Y1330D01*
X915Y1049D01*
X964Y961D01*
X1194Y880D01*
X1438Y894D01*
X1598Y961D01*
X1647Y1049D01*
X1647Y310D01*
X310Y310D01*
X310Y16440D01*
X15690Y16440D01*
X15690Y310D01*
G54D18*
X7250Y8750D03*
X4250Y13750D03*
X11750Y13750D03*
X2250Y7425D03*
X2250Y9000D03*
X2250Y10574D03*
X12875Y7500D03*
X12875Y10500D03*
X13875Y7500D03*
X13875Y10500D03*
X7875Y10500D03*
X6875Y10500D03*
X5875Y10500D03*
X4875Y10500D03*
X8875Y10500D03*
X9875Y10500D03*
X10875Y10500D03*
X4875Y7500D03*
X5875Y7500D03*
X6875Y7500D03*
X7875Y7500D03*
X8875Y7500D03*
X9875Y7500D03*
X10875Y7500D03*
X5218Y1500D03*
X1281Y1500D03*
X11875Y10500D03*
X11875Y7500D03*
X14545Y1318D03*
X7726Y5255D03*
M02*
