%FSLAX34Y34*%
G04 Gerber Fmt 3.4, Leading zero omitted, Abs format*
G04 (created by PCBNEW (2014-01-30 BZR 4648)-product) date Sun Feb 23 14:33:07 2014*
%MOIN*%
G01*
G70*
G90*
G04 APERTURE LIST*
%ADD10C,0.013780*%
%ADD11C,0.011811*%
%ADD12C,0.007087*%
%ADD13C,0.015748*%
%ADD14C,0.007874*%
%ADD15C,0.005906*%
%ADD16C,0.433071*%
%ADD17C,0.118110*%
%ADD18C,0.059055*%
%ADD19C,0.086614*%
%ADD20C,0.098425*%
G04 APERTURE END LIST*
G54D10*
G54D11*
X12734Y6401D02*
X13015Y6401D01*
X12678Y6232D02*
X12875Y6823D01*
X13071Y6232D01*
X13734Y6401D02*
X14015Y6401D01*
X13678Y6232D02*
X13875Y6823D01*
X14071Y6232D01*
G54D12*
X15165Y4381D02*
X15428Y4456D01*
X15240Y4531D01*
X15428Y4606D01*
X15165Y4681D01*
X15165Y4794D02*
X15428Y4869D01*
X15240Y4944D01*
X15428Y5019D01*
X15165Y5094D01*
X15165Y5206D02*
X15428Y5281D01*
X15240Y5356D01*
X15428Y5431D01*
X15165Y5506D01*
X15390Y5656D02*
X15409Y5675D01*
X15428Y5656D01*
X15409Y5637D01*
X15390Y5656D01*
X15428Y5656D01*
X15409Y5825D02*
X15428Y5862D01*
X15428Y5937D01*
X15409Y5975D01*
X15371Y5994D01*
X15353Y5994D01*
X15315Y5975D01*
X15296Y5937D01*
X15296Y5881D01*
X15278Y5844D01*
X15240Y5825D01*
X15221Y5825D01*
X15184Y5844D01*
X15165Y5881D01*
X15165Y5937D01*
X15184Y5975D01*
X15428Y6162D02*
X15165Y6162D01*
X15203Y6162D02*
X15184Y6181D01*
X15165Y6219D01*
X15165Y6275D01*
X15184Y6312D01*
X15221Y6331D01*
X15428Y6331D01*
X15221Y6331D02*
X15184Y6350D01*
X15165Y6387D01*
X15165Y6444D01*
X15184Y6481D01*
X15221Y6500D01*
X15428Y6500D01*
X15428Y6856D02*
X15221Y6856D01*
X15184Y6837D01*
X15165Y6800D01*
X15165Y6725D01*
X15184Y6687D01*
X15409Y6856D02*
X15428Y6819D01*
X15428Y6725D01*
X15409Y6687D01*
X15371Y6669D01*
X15334Y6669D01*
X15296Y6687D01*
X15278Y6725D01*
X15278Y6819D01*
X15259Y6856D01*
X15428Y7100D02*
X15409Y7062D01*
X15371Y7044D01*
X15034Y7044D01*
X15428Y7306D02*
X15409Y7269D01*
X15371Y7250D01*
X15034Y7250D01*
X15428Y7456D02*
X15034Y7456D01*
X15184Y7456D02*
X15165Y7494D01*
X15165Y7568D01*
X15184Y7606D01*
X15203Y7625D01*
X15240Y7643D01*
X15353Y7643D01*
X15390Y7625D01*
X15409Y7606D01*
X15428Y7568D01*
X15428Y7494D01*
X15409Y7456D01*
X15165Y7981D02*
X15428Y7981D01*
X15165Y7812D02*
X15371Y7812D01*
X15409Y7831D01*
X15428Y7868D01*
X15428Y7925D01*
X15409Y7962D01*
X15390Y7981D01*
X15428Y8225D02*
X15409Y8187D01*
X15371Y8168D01*
X15034Y8168D01*
X15428Y8375D02*
X15034Y8375D01*
X15184Y8375D02*
X15165Y8412D01*
X15165Y8487D01*
X15184Y8525D01*
X15203Y8543D01*
X15240Y8562D01*
X15353Y8562D01*
X15390Y8543D01*
X15409Y8525D01*
X15428Y8487D01*
X15428Y8412D01*
X15409Y8375D01*
X15390Y8731D02*
X15409Y8750D01*
X15428Y8731D01*
X15409Y8712D01*
X15390Y8731D01*
X15428Y8731D01*
X15165Y8918D02*
X15428Y8918D01*
X15203Y8918D02*
X15184Y8937D01*
X15165Y8975D01*
X15165Y9031D01*
X15184Y9068D01*
X15221Y9087D01*
X15428Y9087D01*
X15409Y9425D02*
X15428Y9387D01*
X15428Y9312D01*
X15409Y9275D01*
X15371Y9256D01*
X15221Y9256D01*
X15184Y9275D01*
X15165Y9312D01*
X15165Y9387D01*
X15184Y9425D01*
X15221Y9443D01*
X15259Y9443D01*
X15296Y9256D01*
X15165Y9556D02*
X15165Y9706D01*
X15034Y9612D02*
X15371Y9612D01*
X15409Y9631D01*
X15428Y9668D01*
X15428Y9706D01*
X15015Y10118D02*
X15521Y9781D01*
X15428Y10418D02*
X15221Y10418D01*
X15184Y10399D01*
X15165Y10362D01*
X15165Y10287D01*
X15184Y10249D01*
X15409Y10418D02*
X15428Y10381D01*
X15428Y10287D01*
X15409Y10249D01*
X15371Y10231D01*
X15334Y10231D01*
X15296Y10249D01*
X15278Y10287D01*
X15278Y10381D01*
X15259Y10418D01*
X15165Y10774D02*
X15428Y10774D01*
X15165Y10606D02*
X15371Y10606D01*
X15409Y10624D01*
X15428Y10662D01*
X15428Y10718D01*
X15409Y10756D01*
X15390Y10774D01*
X15428Y11131D02*
X15034Y11131D01*
X15409Y11131D02*
X15428Y11093D01*
X15428Y11018D01*
X15409Y10981D01*
X15390Y10962D01*
X15353Y10943D01*
X15240Y10943D01*
X15203Y10962D01*
X15184Y10981D01*
X15165Y11018D01*
X15165Y11093D01*
X15184Y11131D01*
X15428Y11318D02*
X15165Y11318D01*
X15034Y11318D02*
X15053Y11299D01*
X15071Y11318D01*
X15053Y11337D01*
X15034Y11318D01*
X15071Y11318D01*
X15428Y11562D02*
X15409Y11524D01*
X15390Y11505D01*
X15353Y11487D01*
X15240Y11487D01*
X15203Y11505D01*
X15184Y11524D01*
X15165Y11562D01*
X15165Y11618D01*
X15184Y11655D01*
X15203Y11674D01*
X15240Y11693D01*
X15353Y11693D01*
X15390Y11674D01*
X15409Y11655D01*
X15428Y11618D01*
X15428Y11562D01*
X15428Y11918D02*
X15409Y11880D01*
X15390Y11862D01*
X15353Y11843D01*
X15240Y11843D01*
X15203Y11862D01*
X15184Y11880D01*
X15165Y11918D01*
X15165Y11974D01*
X15184Y12012D01*
X15203Y12030D01*
X15240Y12049D01*
X15353Y12049D01*
X15390Y12030D01*
X15409Y12012D01*
X15428Y11974D01*
X15428Y11918D01*
X15428Y12218D02*
X15034Y12218D01*
X15428Y12387D02*
X15221Y12387D01*
X15184Y12368D01*
X15165Y12330D01*
X15165Y12274D01*
X15184Y12237D01*
X15203Y12218D01*
X15428Y12574D02*
X15165Y12574D01*
X15203Y12574D02*
X15184Y12593D01*
X15165Y12630D01*
X15165Y12687D01*
X15184Y12724D01*
X15221Y12743D01*
X15428Y12743D01*
X15221Y12743D02*
X15184Y12762D01*
X15165Y12799D01*
X15165Y12855D01*
X15184Y12893D01*
X15221Y12912D01*
X15428Y12912D01*
X15428Y13099D02*
X15165Y13099D01*
X15203Y13099D02*
X15184Y13118D01*
X15165Y13155D01*
X15165Y13212D01*
X15184Y13249D01*
X15221Y13268D01*
X15428Y13268D01*
X15221Y13268D02*
X15184Y13287D01*
X15165Y13324D01*
X15165Y13380D01*
X15184Y13418D01*
X15221Y13437D01*
X15428Y13437D01*
X15409Y13774D02*
X15428Y13736D01*
X15428Y13661D01*
X15409Y13624D01*
X15371Y13605D01*
X15221Y13605D01*
X15184Y13624D01*
X15165Y13661D01*
X15165Y13736D01*
X15184Y13774D01*
X15221Y13793D01*
X15259Y13793D01*
X15296Y13605D01*
X15165Y13905D02*
X15165Y14055D01*
X15034Y13961D02*
X15371Y13961D01*
X15409Y13980D01*
X15428Y14018D01*
X15428Y14055D01*
X15409Y14336D02*
X15428Y14299D01*
X15428Y14224D01*
X15409Y14186D01*
X15371Y14168D01*
X15221Y14168D01*
X15184Y14186D01*
X15165Y14224D01*
X15165Y14299D01*
X15184Y14336D01*
X15221Y14355D01*
X15259Y14355D01*
X15296Y14168D01*
X15428Y14524D02*
X15165Y14524D01*
X15240Y14524D02*
X15203Y14543D01*
X15184Y14561D01*
X15165Y14599D01*
X15165Y14636D01*
G54D13*
X10912Y4023D02*
X10912Y4436D01*
X10875Y4511D01*
X10800Y4548D01*
X10650Y4548D01*
X10575Y4511D01*
X10912Y4061D02*
X10837Y4023D01*
X10650Y4023D01*
X10575Y4061D01*
X10537Y4136D01*
X10537Y4211D01*
X10575Y4286D01*
X10650Y4323D01*
X10837Y4323D01*
X10912Y4361D01*
X11625Y4548D02*
X11625Y4023D01*
X11287Y4548D02*
X11287Y4136D01*
X11325Y4061D01*
X11400Y4023D01*
X11512Y4023D01*
X11587Y4061D01*
X11625Y4098D01*
X12337Y4023D02*
X12337Y4811D01*
X12337Y4061D02*
X12262Y4023D01*
X12112Y4023D01*
X12037Y4061D01*
X12000Y4098D01*
X11962Y4173D01*
X11962Y4398D01*
X12000Y4473D01*
X12037Y4511D01*
X12112Y4548D01*
X12262Y4548D01*
X12337Y4511D01*
X12712Y4023D02*
X12712Y4548D01*
X12712Y4811D02*
X12674Y4773D01*
X12712Y4736D01*
X12749Y4773D01*
X12712Y4811D01*
X12712Y4736D01*
X13199Y4023D02*
X13124Y4061D01*
X13087Y4098D01*
X13049Y4173D01*
X13049Y4398D01*
X13087Y4473D01*
X13124Y4511D01*
X13199Y4548D01*
X13312Y4548D01*
X13387Y4511D01*
X13424Y4473D01*
X13462Y4398D01*
X13462Y4173D01*
X13424Y4098D01*
X13387Y4061D01*
X13312Y4023D01*
X13199Y4023D01*
X9394Y2763D02*
X9319Y2801D01*
X9281Y2838D01*
X9244Y2913D01*
X9244Y3138D01*
X9281Y3213D01*
X9319Y3251D01*
X9394Y3288D01*
X9506Y3288D01*
X9581Y3251D01*
X9619Y3213D01*
X9656Y3138D01*
X9656Y2913D01*
X9619Y2838D01*
X9581Y2801D01*
X9506Y2763D01*
X9394Y2763D01*
X9994Y2763D02*
X9994Y3551D01*
X10331Y2763D02*
X10331Y3176D01*
X10293Y3251D01*
X10218Y3288D01*
X10106Y3288D01*
X10031Y3251D01*
X9994Y3213D01*
X10706Y2763D02*
X10706Y3288D01*
X10706Y3213D02*
X10743Y3251D01*
X10818Y3288D01*
X10931Y3288D01*
X11006Y3251D01*
X11043Y3176D01*
X11043Y2763D01*
X11043Y3176D02*
X11081Y3251D01*
X11156Y3288D01*
X11268Y3288D01*
X11343Y3251D01*
X11381Y3176D01*
X11381Y2763D01*
X11756Y2763D02*
X11756Y3288D01*
X11756Y3213D02*
X11793Y3251D01*
X11868Y3288D01*
X11981Y3288D01*
X12056Y3251D01*
X12093Y3176D01*
X12093Y2763D01*
X12093Y3176D02*
X12131Y3251D01*
X12206Y3288D01*
X12318Y3288D01*
X12393Y3251D01*
X12431Y3176D01*
X12431Y2763D01*
X13106Y2801D02*
X13031Y2763D01*
X12881Y2763D01*
X12806Y2801D01*
X12768Y2876D01*
X12768Y3176D01*
X12806Y3251D01*
X12881Y3288D01*
X13031Y3288D01*
X13106Y3251D01*
X13143Y3176D01*
X13143Y3101D01*
X12768Y3026D01*
X13368Y3288D02*
X13668Y3288D01*
X13481Y3551D02*
X13481Y2876D01*
X13518Y2801D01*
X13593Y2763D01*
X13668Y2763D01*
X14230Y2801D02*
X14155Y2763D01*
X14005Y2763D01*
X13931Y2801D01*
X13893Y2876D01*
X13893Y3176D01*
X13931Y3251D01*
X14005Y3288D01*
X14155Y3288D01*
X14230Y3251D01*
X14268Y3176D01*
X14268Y3101D01*
X13893Y3026D01*
X14605Y2763D02*
X14605Y3288D01*
X14605Y3138D02*
X14643Y3213D01*
X14680Y3251D01*
X14755Y3288D01*
X14830Y3288D01*
G54D14*
X963Y6946D02*
X941Y6901D01*
X918Y6878D01*
X873Y6856D01*
X738Y6856D01*
X693Y6878D01*
X671Y6901D01*
X648Y6946D01*
X648Y7013D01*
X671Y7058D01*
X693Y7081D01*
X738Y7103D01*
X873Y7103D01*
X918Y7081D01*
X941Y7058D01*
X963Y7013D01*
X963Y6946D01*
X648Y7238D02*
X648Y7418D01*
X963Y7306D02*
X558Y7306D01*
X513Y7328D01*
X491Y7373D01*
X491Y7418D01*
X648Y7508D02*
X648Y7688D01*
X963Y7576D02*
X558Y7576D01*
X513Y7598D01*
X491Y7643D01*
X491Y7688D01*
X963Y10502D02*
X941Y10457D01*
X918Y10435D01*
X873Y10412D01*
X738Y10412D01*
X693Y10435D01*
X671Y10457D01*
X648Y10502D01*
X648Y10570D01*
X671Y10615D01*
X693Y10637D01*
X738Y10660D01*
X873Y10660D01*
X918Y10637D01*
X941Y10615D01*
X963Y10570D01*
X963Y10502D01*
X648Y10862D02*
X963Y10862D01*
X693Y10862D02*
X671Y10884D01*
X648Y10929D01*
X648Y10997D01*
X671Y11042D01*
X716Y11064D01*
X963Y11064D01*
G54D12*
X3352Y11244D02*
X3352Y6755D01*
X1147Y6755D02*
X1147Y11244D01*
X1147Y11244D02*
X3352Y11244D01*
X1147Y6755D02*
X3352Y6755D01*
X3875Y9400D02*
X4275Y9400D01*
X4275Y9400D02*
X4275Y8600D01*
X4275Y8600D02*
X3875Y8600D01*
X11375Y10500D02*
X11875Y10500D01*
X11875Y10500D02*
X11875Y7500D01*
X11875Y7500D02*
X11375Y7500D01*
X4375Y10500D02*
X3875Y10500D01*
X3875Y10500D02*
X3875Y7500D01*
X3875Y7500D02*
X4375Y7500D01*
X7974Y1500D02*
G75*
G03X7974Y1500I-4724J0D01*
G74*
G01*
G54D15*
X959Y15071D02*
X959Y15465D01*
X1109Y15465D01*
X1146Y15446D01*
X1165Y15428D01*
X1184Y15390D01*
X1184Y15334D01*
X1165Y15296D01*
X1146Y15278D01*
X1109Y15259D01*
X959Y15259D01*
X1559Y15071D02*
X1334Y15071D01*
X1446Y15071D02*
X1446Y15465D01*
X1409Y15409D01*
X1371Y15371D01*
X1334Y15353D01*
X8459Y15071D02*
X8459Y15465D01*
X8609Y15465D01*
X8646Y15446D01*
X8665Y15428D01*
X8684Y15390D01*
X8684Y15334D01*
X8665Y15296D01*
X8646Y15278D01*
X8609Y15259D01*
X8459Y15259D01*
X8834Y15428D02*
X8853Y15446D01*
X8890Y15465D01*
X8984Y15465D01*
X9021Y15446D01*
X9040Y15428D01*
X9059Y15390D01*
X9059Y15353D01*
X9040Y15296D01*
X8815Y15071D01*
X9059Y15071D01*
X1725Y11465D02*
X1781Y11446D01*
X1875Y11446D01*
X1912Y11465D01*
X1931Y11484D01*
X1950Y11521D01*
X1950Y11559D01*
X1931Y11596D01*
X1912Y11615D01*
X1875Y11634D01*
X1800Y11653D01*
X1762Y11671D01*
X1743Y11690D01*
X1725Y11728D01*
X1725Y11765D01*
X1743Y11803D01*
X1762Y11821D01*
X1800Y11840D01*
X1893Y11840D01*
X1950Y11821D01*
X2081Y11840D02*
X2175Y11446D01*
X2250Y11728D01*
X2324Y11446D01*
X2418Y11840D01*
X2774Y11446D02*
X2549Y11446D01*
X2662Y11446D02*
X2662Y11840D01*
X2624Y11784D01*
X2587Y11746D01*
X2549Y11728D01*
X12584Y11071D02*
X12584Y11465D01*
X12678Y11465D01*
X12734Y11446D01*
X12771Y11409D01*
X12790Y11371D01*
X12809Y11296D01*
X12809Y11240D01*
X12790Y11165D01*
X12771Y11128D01*
X12734Y11090D01*
X12678Y11071D01*
X12584Y11071D01*
X13184Y11071D02*
X12959Y11071D01*
X13071Y11071D02*
X13071Y11465D01*
X13034Y11409D01*
X12996Y11371D01*
X12959Y11353D01*
X13584Y11071D02*
X13584Y11465D01*
X13678Y11465D01*
X13734Y11446D01*
X13771Y11409D01*
X13790Y11371D01*
X13809Y11296D01*
X13809Y11240D01*
X13790Y11165D01*
X13771Y11128D01*
X13734Y11090D01*
X13678Y11071D01*
X13584Y11071D01*
X13959Y11428D02*
X13978Y11446D01*
X14015Y11465D01*
X14109Y11465D01*
X14146Y11446D01*
X14165Y11428D01*
X14184Y11390D01*
X14184Y11353D01*
X14165Y11296D01*
X13940Y11071D01*
X14184Y11071D01*
X7575Y11465D02*
X7575Y11146D01*
X7593Y11109D01*
X7612Y11090D01*
X7650Y11071D01*
X7725Y11071D01*
X7762Y11090D01*
X7781Y11109D01*
X7800Y11146D01*
X7800Y11465D01*
X8193Y11071D02*
X7968Y11071D01*
X8081Y11071D02*
X8081Y11465D01*
X8043Y11409D01*
X8006Y11371D01*
X7968Y11353D01*
X2753Y1340D02*
X2809Y1321D01*
X2903Y1321D01*
X2940Y1340D01*
X2959Y1359D01*
X2978Y1396D01*
X2978Y1434D01*
X2959Y1471D01*
X2940Y1490D01*
X2903Y1509D01*
X2828Y1528D01*
X2790Y1546D01*
X2771Y1565D01*
X2753Y1603D01*
X2753Y1640D01*
X2771Y1678D01*
X2790Y1696D01*
X2828Y1715D01*
X2921Y1715D01*
X2978Y1696D01*
X3146Y1321D02*
X3146Y1715D01*
X3296Y1715D01*
X3334Y1696D01*
X3353Y1678D01*
X3371Y1640D01*
X3371Y1584D01*
X3353Y1546D01*
X3334Y1528D01*
X3296Y1509D01*
X3146Y1509D01*
X3746Y1321D02*
X3521Y1321D01*
X3634Y1321D02*
X3634Y1715D01*
X3596Y1659D01*
X3559Y1621D01*
X3521Y1603D01*
%LPC*%
G54D16*
X4250Y13750D03*
X11750Y13750D03*
G54D17*
X2250Y7425D03*
X2250Y9000D03*
X2250Y10574D03*
G54D18*
X12875Y7500D03*
X12875Y10500D03*
X13875Y7500D03*
X13875Y10500D03*
X7875Y10500D03*
X6875Y10500D03*
X5875Y10500D03*
X4875Y10500D03*
X8875Y10500D03*
X9875Y10500D03*
X10875Y10500D03*
X4875Y7500D03*
X5875Y7500D03*
X6875Y7500D03*
X7875Y7500D03*
X8875Y7500D03*
X9875Y7500D03*
X10875Y7500D03*
G54D19*
X5218Y1500D03*
X1281Y1500D03*
G54D18*
X11875Y10500D03*
X11875Y7500D03*
G54D20*
X14545Y1318D03*
X7726Y5255D03*
M02*
