%FSLAX34Y34*%
G04 Gerber Fmt 3.4, Leading zero omitted, Abs format*
G04 (created by PCBNEW (2014-01-30 BZR 4648)-product) date Sat Mar  1 14:05:08 2014*
%MOIN*%
G01*
G70*
G90*
G04 APERTURE LIST*
%ADD10C,0.013780*%
%ADD11C,0.433071*%
%ADD12C,0.118110*%
%ADD13R,0.051181X0.047244*%
%ADD14C,0.059055*%
%ADD15C,0.086614*%
%ADD16C,0.098425*%
%ADD17C,0.033858*%
%ADD18C,0.012000*%
%ADD19C,0.013780*%
G04 APERTURE END LIST*
G54D10*
G54D11*
X4250Y13750D03*
X11750Y13750D03*
G54D12*
X2250Y7425D03*
X2250Y9000D03*
X2250Y10574D03*
G54D13*
X9750Y8550D03*
X9750Y9450D03*
G54D14*
X12875Y7500D03*
X12875Y10500D03*
X13875Y7500D03*
X13875Y10500D03*
G54D13*
X6750Y8550D03*
X6750Y9450D03*
X11250Y9450D03*
X11250Y8550D03*
G54D14*
X7875Y10500D03*
X6875Y10500D03*
X5875Y10500D03*
X4875Y10500D03*
X8875Y10500D03*
X9875Y10500D03*
X10875Y10500D03*
X4875Y7500D03*
X5875Y7500D03*
X6875Y7500D03*
X7875Y7500D03*
X8875Y7500D03*
X9875Y7500D03*
X10875Y7500D03*
G54D13*
X8250Y9450D03*
X8250Y8550D03*
X5250Y9450D03*
X5250Y8550D03*
G54D15*
X5218Y1500D03*
X1281Y1500D03*
G54D14*
X11875Y10500D03*
X11875Y7500D03*
G54D16*
X14545Y1318D03*
X7726Y5255D03*
G54D17*
X7250Y8750D03*
G54D18*
X2250Y9000D02*
X5994Y5255D01*
X5994Y5255D02*
X7726Y5255D01*
X5875Y10500D02*
X6375Y10000D01*
X7700Y10000D02*
X8250Y9450D01*
X6375Y10000D02*
X7700Y10000D01*
X8250Y9450D02*
X8875Y10075D01*
X8875Y10075D02*
X8875Y10500D01*
X8250Y8550D02*
X7350Y9450D01*
X7350Y9450D02*
X6750Y9450D01*
X9750Y8550D02*
X8250Y8550D01*
X4250Y13750D02*
X4250Y12000D01*
X4250Y12000D02*
X5375Y10875D01*
X5375Y10875D02*
X5375Y10250D01*
X5375Y10250D02*
X6175Y9450D01*
X6175Y9450D02*
X6750Y9450D01*
X9750Y8550D02*
X11250Y8550D01*
X11250Y9450D02*
X11825Y9450D01*
X11825Y9450D02*
X12875Y10500D01*
X6750Y8550D02*
X7050Y8550D01*
X7050Y8550D02*
X7250Y8750D01*
X7875Y10500D02*
X8375Y11000D01*
X10375Y11000D02*
X10875Y10500D01*
X8375Y11000D02*
X10375Y11000D01*
X4875Y10500D02*
X4875Y9825D01*
X4875Y9825D02*
X5250Y9450D01*
X2250Y10574D02*
X4800Y10574D01*
G54D10*
G36*
X15440Y560D02*
X15230Y560D01*
X15230Y1330D01*
X15177Y1425D01*
X15145Y1417D01*
X15145Y1541D01*
X15144Y1651D01*
X14972Y1855D01*
X14734Y1977D01*
X14534Y2004D01*
X14438Y1950D01*
X14588Y1392D01*
X15145Y1541D01*
X15145Y1417D01*
X14619Y1276D01*
X14768Y718D01*
X14878Y719D01*
X15082Y892D01*
X15204Y1130D01*
X15230Y1330D01*
X15230Y560D01*
X14652Y560D01*
X14652Y687D01*
X14503Y1245D01*
X14472Y1237D01*
X14472Y1361D01*
X14350Y1816D01*
X14350Y7594D01*
X14350Y10594D01*
X14278Y10768D01*
X14144Y10902D01*
X14095Y10922D01*
X14095Y14214D01*
X13739Y15076D01*
X13080Y15737D01*
X12218Y16094D01*
X11285Y16095D01*
X10423Y15739D01*
X9762Y15080D01*
X9405Y14218D01*
X9404Y13285D01*
X9760Y12423D01*
X10419Y11762D01*
X11281Y11405D01*
X12214Y11404D01*
X13076Y11760D01*
X13737Y12419D01*
X14094Y13281D01*
X14095Y14214D01*
X14095Y10922D01*
X13969Y10975D01*
X13780Y10975D01*
X13606Y10903D01*
X13472Y10769D01*
X13399Y10594D01*
X13399Y10405D01*
X13471Y10231D01*
X13605Y10097D01*
X13780Y10024D01*
X13969Y10024D01*
X14143Y10096D01*
X14277Y10230D01*
X14350Y10405D01*
X14350Y10594D01*
X14350Y7594D01*
X14278Y7768D01*
X14144Y7902D01*
X13969Y7975D01*
X13780Y7975D01*
X13606Y7903D01*
X13472Y7769D01*
X13399Y7594D01*
X13399Y7405D01*
X13471Y7231D01*
X13605Y7097D01*
X13780Y7024D01*
X13969Y7024D01*
X14143Y7096D01*
X14277Y7230D01*
X14350Y7405D01*
X14350Y7594D01*
X14350Y1816D01*
X14322Y1919D01*
X14213Y1918D01*
X14009Y1745D01*
X13886Y1507D01*
X13860Y1307D01*
X13914Y1211D01*
X14472Y1361D01*
X14472Y1237D01*
X13945Y1095D01*
X13946Y986D01*
X14119Y782D01*
X14357Y660D01*
X14557Y633D01*
X14652Y687D01*
X14652Y560D01*
X13350Y560D01*
X13350Y7594D01*
X13350Y10594D01*
X13278Y10768D01*
X13144Y10902D01*
X12969Y10975D01*
X12780Y10975D01*
X12606Y10903D01*
X12472Y10769D01*
X12399Y10594D01*
X12399Y10405D01*
X12411Y10376D01*
X12285Y10250D01*
X12350Y10405D01*
X12350Y10594D01*
X12278Y10768D01*
X12144Y10902D01*
X11969Y10975D01*
X11780Y10975D01*
X11606Y10903D01*
X11472Y10769D01*
X11399Y10594D01*
X11399Y10405D01*
X11471Y10231D01*
X11605Y10097D01*
X11780Y10024D01*
X11969Y10024D01*
X12124Y10088D01*
X11725Y9690D01*
X11685Y9690D01*
X11685Y9722D01*
X11658Y9788D01*
X11607Y9838D01*
X11541Y9866D01*
X11470Y9866D01*
X10958Y9866D01*
X10892Y9838D01*
X10841Y9788D01*
X10814Y9722D01*
X10814Y9650D01*
X10814Y9177D01*
X10841Y9111D01*
X10892Y9061D01*
X10958Y9033D01*
X11029Y9033D01*
X11541Y9033D01*
X11607Y9061D01*
X11658Y9111D01*
X11685Y9177D01*
X11685Y9210D01*
X11825Y9210D01*
X11916Y9228D01*
X11994Y9280D01*
X12751Y10036D01*
X12780Y10024D01*
X12969Y10024D01*
X13143Y10096D01*
X13277Y10230D01*
X13350Y10405D01*
X13350Y10594D01*
X13350Y7594D01*
X13278Y7768D01*
X13144Y7902D01*
X12969Y7975D01*
X12780Y7975D01*
X12606Y7903D01*
X12472Y7769D01*
X12399Y7594D01*
X12399Y7405D01*
X12471Y7231D01*
X12605Y7097D01*
X12780Y7024D01*
X12969Y7024D01*
X13143Y7096D01*
X13277Y7230D01*
X13350Y7405D01*
X13350Y7594D01*
X13350Y560D01*
X12350Y560D01*
X12350Y7594D01*
X12278Y7768D01*
X12144Y7902D01*
X11969Y7975D01*
X11780Y7975D01*
X11685Y7936D01*
X11685Y8277D01*
X11685Y8349D01*
X11685Y8822D01*
X11658Y8888D01*
X11607Y8938D01*
X11541Y8966D01*
X11470Y8966D01*
X10958Y8966D01*
X10892Y8938D01*
X10841Y8888D01*
X10814Y8822D01*
X10814Y8790D01*
X10185Y8790D01*
X10185Y8822D01*
X10185Y9177D01*
X10185Y9345D01*
X10185Y9555D01*
X10185Y9722D01*
X10158Y9788D01*
X10107Y9838D01*
X10041Y9866D01*
X9970Y9866D01*
X9855Y9866D01*
X9810Y9821D01*
X9810Y9510D01*
X10140Y9510D01*
X10185Y9555D01*
X10185Y9345D01*
X10140Y9390D01*
X9810Y9390D01*
X9810Y9078D01*
X9855Y9033D01*
X9970Y9033D01*
X10041Y9033D01*
X10107Y9061D01*
X10158Y9111D01*
X10185Y9177D01*
X10185Y8822D01*
X10158Y8888D01*
X10107Y8938D01*
X10041Y8966D01*
X9970Y8966D01*
X9690Y8966D01*
X9690Y9078D01*
X9690Y9390D01*
X9690Y9510D01*
X9690Y9821D01*
X9645Y9866D01*
X9529Y9866D01*
X9458Y9866D01*
X9392Y9838D01*
X9341Y9788D01*
X9314Y9722D01*
X9314Y9555D01*
X9359Y9510D01*
X9690Y9510D01*
X9690Y9390D01*
X9359Y9390D01*
X9314Y9345D01*
X9314Y9177D01*
X9341Y9111D01*
X9392Y9061D01*
X9458Y9033D01*
X9529Y9033D01*
X9645Y9033D01*
X9690Y9078D01*
X9690Y8966D01*
X9458Y8966D01*
X9392Y8938D01*
X9341Y8888D01*
X9314Y8822D01*
X9314Y8790D01*
X8685Y8790D01*
X8685Y8822D01*
X8658Y8888D01*
X8607Y8938D01*
X8541Y8966D01*
X8470Y8966D01*
X8173Y8966D01*
X8105Y9033D01*
X8541Y9033D01*
X8607Y9061D01*
X8658Y9111D01*
X8685Y9177D01*
X8685Y9249D01*
X8685Y9546D01*
X9044Y9905D01*
X9096Y9983D01*
X9115Y10075D01*
X9115Y10084D01*
X9143Y10096D01*
X9277Y10230D01*
X9350Y10405D01*
X9350Y10594D01*
X9281Y10760D01*
X9468Y10760D01*
X9399Y10594D01*
X9399Y10405D01*
X9471Y10231D01*
X9605Y10097D01*
X9780Y10024D01*
X9969Y10024D01*
X10143Y10096D01*
X10277Y10230D01*
X10350Y10405D01*
X10350Y10594D01*
X10286Y10749D01*
X10411Y10623D01*
X10399Y10594D01*
X10399Y10405D01*
X10471Y10231D01*
X10605Y10097D01*
X10780Y10024D01*
X10969Y10024D01*
X11143Y10096D01*
X11277Y10230D01*
X11350Y10405D01*
X11350Y10594D01*
X11278Y10768D01*
X11144Y10902D01*
X10969Y10975D01*
X10780Y10975D01*
X10751Y10963D01*
X10544Y11169D01*
X10466Y11221D01*
X10375Y11240D01*
X8375Y11240D01*
X8283Y11221D01*
X8205Y11169D01*
X7998Y10963D01*
X7969Y10975D01*
X7780Y10975D01*
X7606Y10903D01*
X7472Y10769D01*
X7399Y10594D01*
X7399Y10405D01*
X7468Y10240D01*
X7281Y10240D01*
X7350Y10405D01*
X7350Y10594D01*
X7278Y10768D01*
X7144Y10902D01*
X6969Y10975D01*
X6780Y10975D01*
X6606Y10903D01*
X6472Y10769D01*
X6399Y10594D01*
X6399Y10405D01*
X6463Y10250D01*
X6338Y10376D01*
X6350Y10405D01*
X6350Y10594D01*
X6278Y10768D01*
X6144Y10902D01*
X5969Y10975D01*
X5780Y10975D01*
X5609Y10904D01*
X5596Y10966D01*
X5544Y11044D01*
X5047Y11541D01*
X5576Y11760D01*
X6237Y12419D01*
X6594Y13281D01*
X6595Y14214D01*
X6239Y15076D01*
X5580Y15737D01*
X4718Y16094D01*
X3785Y16095D01*
X2923Y15739D01*
X2262Y15080D01*
X1905Y14218D01*
X1904Y13285D01*
X2260Y12423D01*
X2919Y11762D01*
X3781Y11405D01*
X4506Y11404D01*
X4935Y10975D01*
X4780Y10975D01*
X4606Y10903D01*
X4517Y10814D01*
X2984Y10814D01*
X2903Y11010D01*
X2687Y11227D01*
X2403Y11345D01*
X2097Y11345D01*
X1814Y11228D01*
X1597Y11011D01*
X1479Y10728D01*
X1479Y10422D01*
X1596Y10138D01*
X1812Y9921D01*
X2096Y9804D01*
X2402Y9804D01*
X2685Y9921D01*
X2902Y10137D01*
X2984Y10334D01*
X4429Y10334D01*
X4471Y10231D01*
X4605Y10097D01*
X4635Y10085D01*
X4635Y9825D01*
X4653Y9733D01*
X4705Y9655D01*
X4814Y9546D01*
X4814Y9177D01*
X4841Y9111D01*
X4892Y9061D01*
X4958Y9033D01*
X5029Y9033D01*
X5541Y9033D01*
X5607Y9061D01*
X5658Y9111D01*
X5685Y9177D01*
X5685Y9249D01*
X5685Y9599D01*
X6005Y9280D01*
X6083Y9228D01*
X6175Y9210D01*
X6314Y9210D01*
X6314Y9177D01*
X6341Y9111D01*
X6392Y9061D01*
X6458Y9033D01*
X6529Y9033D01*
X7039Y9033D01*
X6972Y8966D01*
X6970Y8966D01*
X6458Y8966D01*
X6392Y8938D01*
X6341Y8888D01*
X6314Y8822D01*
X6314Y8750D01*
X6314Y8277D01*
X6341Y8211D01*
X6392Y8161D01*
X6458Y8133D01*
X6529Y8133D01*
X7041Y8133D01*
X7107Y8161D01*
X7158Y8211D01*
X7185Y8277D01*
X7185Y8349D01*
X7185Y8357D01*
X7219Y8380D01*
X7240Y8400D01*
X7319Y8400D01*
X7447Y8453D01*
X7545Y8551D01*
X7599Y8680D01*
X7599Y8819D01*
X7569Y8890D01*
X7814Y8646D01*
X7814Y8277D01*
X7841Y8211D01*
X7892Y8161D01*
X7958Y8133D01*
X8029Y8133D01*
X8541Y8133D01*
X8607Y8161D01*
X8658Y8211D01*
X8685Y8277D01*
X8685Y8310D01*
X9314Y8310D01*
X9314Y8277D01*
X9341Y8211D01*
X9392Y8161D01*
X9458Y8133D01*
X9529Y8133D01*
X10041Y8133D01*
X10107Y8161D01*
X10158Y8211D01*
X10185Y8277D01*
X10185Y8310D01*
X10814Y8310D01*
X10814Y8277D01*
X10841Y8211D01*
X10892Y8161D01*
X10958Y8133D01*
X11029Y8133D01*
X11541Y8133D01*
X11607Y8161D01*
X11658Y8211D01*
X11685Y8277D01*
X11685Y7936D01*
X11606Y7903D01*
X11472Y7769D01*
X11399Y7594D01*
X11399Y7405D01*
X11471Y7231D01*
X11605Y7097D01*
X11780Y7024D01*
X11969Y7024D01*
X12143Y7096D01*
X12277Y7230D01*
X12350Y7405D01*
X12350Y7594D01*
X12350Y560D01*
X11356Y560D01*
X11356Y7446D01*
X11340Y7634D01*
X11299Y7734D01*
X11225Y7765D01*
X11140Y7680D01*
X11140Y7850D01*
X11109Y7924D01*
X10928Y7981D01*
X10740Y7965D01*
X10640Y7924D01*
X10609Y7850D01*
X10875Y7584D01*
X11140Y7850D01*
X11140Y7680D01*
X10959Y7500D01*
X11225Y7234D01*
X11299Y7265D01*
X11356Y7446D01*
X11356Y560D01*
X11140Y560D01*
X11140Y7149D01*
X10875Y7415D01*
X10790Y7330D01*
X10790Y7500D01*
X10524Y7765D01*
X10450Y7734D01*
X10393Y7553D01*
X10409Y7365D01*
X10450Y7265D01*
X10524Y7234D01*
X10790Y7500D01*
X10790Y7330D01*
X10609Y7149D01*
X10640Y7075D01*
X10821Y7018D01*
X11009Y7034D01*
X11109Y7075D01*
X11140Y7149D01*
X11140Y560D01*
X10350Y560D01*
X10350Y7594D01*
X10278Y7768D01*
X10144Y7902D01*
X9969Y7975D01*
X9780Y7975D01*
X9606Y7903D01*
X9472Y7769D01*
X9399Y7594D01*
X9399Y7405D01*
X9471Y7231D01*
X9605Y7097D01*
X9780Y7024D01*
X9969Y7024D01*
X10143Y7096D01*
X10277Y7230D01*
X10350Y7405D01*
X10350Y7594D01*
X10350Y560D01*
X9350Y560D01*
X9350Y7594D01*
X9278Y7768D01*
X9144Y7902D01*
X8969Y7975D01*
X8780Y7975D01*
X8606Y7903D01*
X8472Y7769D01*
X8399Y7594D01*
X8399Y7405D01*
X8471Y7231D01*
X8605Y7097D01*
X8780Y7024D01*
X8969Y7024D01*
X9143Y7096D01*
X9277Y7230D01*
X9350Y7405D01*
X9350Y7594D01*
X9350Y560D01*
X8398Y560D01*
X8398Y5389D01*
X8350Y5506D01*
X8350Y7594D01*
X8278Y7768D01*
X8144Y7902D01*
X7969Y7975D01*
X7780Y7975D01*
X7606Y7903D01*
X7472Y7769D01*
X7399Y7594D01*
X7399Y7405D01*
X7471Y7231D01*
X7605Y7097D01*
X7780Y7024D01*
X7969Y7024D01*
X8143Y7096D01*
X8277Y7230D01*
X8350Y7405D01*
X8350Y7594D01*
X8350Y5506D01*
X8296Y5636D01*
X8107Y5825D01*
X7860Y5927D01*
X7593Y5928D01*
X7350Y5827D01*
X7350Y7594D01*
X7278Y7768D01*
X7144Y7902D01*
X6969Y7975D01*
X6780Y7975D01*
X6606Y7903D01*
X6472Y7769D01*
X6399Y7594D01*
X6399Y7405D01*
X6471Y7231D01*
X6605Y7097D01*
X6780Y7024D01*
X6969Y7024D01*
X7143Y7096D01*
X7277Y7230D01*
X7350Y7405D01*
X7350Y7594D01*
X7350Y5827D01*
X7346Y5826D01*
X7157Y5637D01*
X7098Y5495D01*
X6350Y5495D01*
X6350Y7594D01*
X6278Y7768D01*
X6144Y7902D01*
X5969Y7975D01*
X5780Y7975D01*
X5685Y7936D01*
X5685Y8277D01*
X5685Y8445D01*
X5685Y8655D01*
X5685Y8822D01*
X5658Y8888D01*
X5607Y8938D01*
X5541Y8966D01*
X5470Y8966D01*
X5355Y8966D01*
X5310Y8921D01*
X5310Y8610D01*
X5640Y8610D01*
X5685Y8655D01*
X5685Y8445D01*
X5640Y8490D01*
X5310Y8490D01*
X5310Y8178D01*
X5355Y8133D01*
X5470Y8133D01*
X5541Y8133D01*
X5607Y8161D01*
X5658Y8211D01*
X5685Y8277D01*
X5685Y7936D01*
X5606Y7903D01*
X5472Y7769D01*
X5399Y7594D01*
X5399Y7405D01*
X5471Y7231D01*
X5605Y7097D01*
X5780Y7024D01*
X5969Y7024D01*
X6143Y7096D01*
X6277Y7230D01*
X6350Y7405D01*
X6350Y7594D01*
X6350Y5495D01*
X6093Y5495D01*
X5350Y6239D01*
X5350Y7594D01*
X5278Y7768D01*
X5190Y7857D01*
X5190Y8178D01*
X5190Y8490D01*
X5190Y8610D01*
X5190Y8921D01*
X5145Y8966D01*
X5029Y8966D01*
X4958Y8966D01*
X4892Y8938D01*
X4841Y8888D01*
X4814Y8822D01*
X4814Y8655D01*
X4859Y8610D01*
X5190Y8610D01*
X5190Y8490D01*
X4859Y8490D01*
X4814Y8445D01*
X4814Y8277D01*
X4841Y8211D01*
X4892Y8161D01*
X4958Y8133D01*
X5029Y8133D01*
X5145Y8133D01*
X5190Y8178D01*
X5190Y7857D01*
X5144Y7902D01*
X4969Y7975D01*
X4780Y7975D01*
X4606Y7903D01*
X4472Y7769D01*
X4399Y7594D01*
X4399Y7405D01*
X4471Y7231D01*
X4605Y7097D01*
X4780Y7024D01*
X4969Y7024D01*
X5143Y7096D01*
X5277Y7230D01*
X5350Y7405D01*
X5350Y7594D01*
X5350Y6239D01*
X2939Y8650D01*
X3020Y8846D01*
X3020Y9152D01*
X2903Y9435D01*
X2687Y9652D01*
X2403Y9770D01*
X2097Y9770D01*
X1814Y9653D01*
X1597Y9437D01*
X1479Y9153D01*
X1479Y8847D01*
X1596Y8564D01*
X1812Y8347D01*
X2096Y8229D01*
X2402Y8229D01*
X2599Y8310D01*
X5824Y5086D01*
X5902Y5034D01*
X5994Y5015D01*
X7098Y5015D01*
X7156Y4875D01*
X7345Y4686D01*
X7592Y4583D01*
X7859Y4583D01*
X8106Y4685D01*
X8296Y4874D01*
X8398Y5121D01*
X8398Y5389D01*
X8398Y560D01*
X5831Y560D01*
X5831Y1621D01*
X5738Y1846D01*
X5566Y2019D01*
X5340Y2112D01*
X5097Y2113D01*
X4871Y2020D01*
X4699Y1847D01*
X4605Y1622D01*
X4605Y1378D01*
X4698Y1153D01*
X4870Y980D01*
X5096Y887D01*
X5339Y886D01*
X5565Y979D01*
X5737Y1152D01*
X5831Y1377D01*
X5831Y1621D01*
X5831Y560D01*
X3020Y560D01*
X3020Y7577D01*
X2903Y7861D01*
X2687Y8078D01*
X2403Y8195D01*
X2097Y8195D01*
X1814Y8078D01*
X1597Y7862D01*
X1479Y7579D01*
X1479Y7272D01*
X1596Y6989D01*
X1812Y6772D01*
X2096Y6654D01*
X2402Y6654D01*
X2685Y6771D01*
X2902Y6988D01*
X3020Y7271D01*
X3020Y7577D01*
X3020Y560D01*
X1900Y560D01*
X1900Y1413D01*
X1886Y1656D01*
X1820Y1817D01*
X1731Y1865D01*
X1647Y1780D01*
X1647Y1950D01*
X1598Y2038D01*
X1368Y2119D01*
X1124Y2105D01*
X964Y2038D01*
X915Y1950D01*
X1281Y1584D01*
X1647Y1950D01*
X1647Y1780D01*
X1366Y1500D01*
X1731Y1134D01*
X1820Y1182D01*
X1900Y1413D01*
X1900Y560D01*
X1647Y560D01*
X1647Y1049D01*
X1281Y1415D01*
X1196Y1330D01*
X1196Y1500D01*
X831Y1865D01*
X742Y1817D01*
X662Y1586D01*
X676Y1343D01*
X742Y1182D01*
X831Y1134D01*
X1196Y1500D01*
X1196Y1330D01*
X915Y1049D01*
X964Y961D01*
X1194Y880D01*
X1438Y894D01*
X1598Y961D01*
X1647Y1049D01*
X1647Y560D01*
X560Y560D01*
X560Y16190D01*
X15440Y16190D01*
X15440Y560D01*
X15440Y560D01*
G37*
G54D18*
X15440Y560D02*
X15230Y560D01*
X15230Y1330D01*
X15177Y1425D01*
X15145Y1417D01*
X15145Y1541D01*
X15144Y1651D01*
X14972Y1855D01*
X14734Y1977D01*
X14534Y2004D01*
X14438Y1950D01*
X14588Y1392D01*
X15145Y1541D01*
X15145Y1417D01*
X14619Y1276D01*
X14768Y718D01*
X14878Y719D01*
X15082Y892D01*
X15204Y1130D01*
X15230Y1330D01*
X15230Y560D01*
X14652Y560D01*
X14652Y687D01*
X14503Y1245D01*
X14472Y1237D01*
X14472Y1361D01*
X14350Y1816D01*
X14350Y7594D01*
X14350Y10594D01*
X14278Y10768D01*
X14144Y10902D01*
X14095Y10922D01*
X14095Y14214D01*
X13739Y15076D01*
X13080Y15737D01*
X12218Y16094D01*
X11285Y16095D01*
X10423Y15739D01*
X9762Y15080D01*
X9405Y14218D01*
X9404Y13285D01*
X9760Y12423D01*
X10419Y11762D01*
X11281Y11405D01*
X12214Y11404D01*
X13076Y11760D01*
X13737Y12419D01*
X14094Y13281D01*
X14095Y14214D01*
X14095Y10922D01*
X13969Y10975D01*
X13780Y10975D01*
X13606Y10903D01*
X13472Y10769D01*
X13399Y10594D01*
X13399Y10405D01*
X13471Y10231D01*
X13605Y10097D01*
X13780Y10024D01*
X13969Y10024D01*
X14143Y10096D01*
X14277Y10230D01*
X14350Y10405D01*
X14350Y10594D01*
X14350Y7594D01*
X14278Y7768D01*
X14144Y7902D01*
X13969Y7975D01*
X13780Y7975D01*
X13606Y7903D01*
X13472Y7769D01*
X13399Y7594D01*
X13399Y7405D01*
X13471Y7231D01*
X13605Y7097D01*
X13780Y7024D01*
X13969Y7024D01*
X14143Y7096D01*
X14277Y7230D01*
X14350Y7405D01*
X14350Y7594D01*
X14350Y1816D01*
X14322Y1919D01*
X14213Y1918D01*
X14009Y1745D01*
X13886Y1507D01*
X13860Y1307D01*
X13914Y1211D01*
X14472Y1361D01*
X14472Y1237D01*
X13945Y1095D01*
X13946Y986D01*
X14119Y782D01*
X14357Y660D01*
X14557Y633D01*
X14652Y687D01*
X14652Y560D01*
X13350Y560D01*
X13350Y7594D01*
X13350Y10594D01*
X13278Y10768D01*
X13144Y10902D01*
X12969Y10975D01*
X12780Y10975D01*
X12606Y10903D01*
X12472Y10769D01*
X12399Y10594D01*
X12399Y10405D01*
X12411Y10376D01*
X12285Y10250D01*
X12350Y10405D01*
X12350Y10594D01*
X12278Y10768D01*
X12144Y10902D01*
X11969Y10975D01*
X11780Y10975D01*
X11606Y10903D01*
X11472Y10769D01*
X11399Y10594D01*
X11399Y10405D01*
X11471Y10231D01*
X11605Y10097D01*
X11780Y10024D01*
X11969Y10024D01*
X12124Y10088D01*
X11725Y9690D01*
X11685Y9690D01*
X11685Y9722D01*
X11658Y9788D01*
X11607Y9838D01*
X11541Y9866D01*
X11470Y9866D01*
X10958Y9866D01*
X10892Y9838D01*
X10841Y9788D01*
X10814Y9722D01*
X10814Y9650D01*
X10814Y9177D01*
X10841Y9111D01*
X10892Y9061D01*
X10958Y9033D01*
X11029Y9033D01*
X11541Y9033D01*
X11607Y9061D01*
X11658Y9111D01*
X11685Y9177D01*
X11685Y9210D01*
X11825Y9210D01*
X11916Y9228D01*
X11994Y9280D01*
X12751Y10036D01*
X12780Y10024D01*
X12969Y10024D01*
X13143Y10096D01*
X13277Y10230D01*
X13350Y10405D01*
X13350Y10594D01*
X13350Y7594D01*
X13278Y7768D01*
X13144Y7902D01*
X12969Y7975D01*
X12780Y7975D01*
X12606Y7903D01*
X12472Y7769D01*
X12399Y7594D01*
X12399Y7405D01*
X12471Y7231D01*
X12605Y7097D01*
X12780Y7024D01*
X12969Y7024D01*
X13143Y7096D01*
X13277Y7230D01*
X13350Y7405D01*
X13350Y7594D01*
X13350Y560D01*
X12350Y560D01*
X12350Y7594D01*
X12278Y7768D01*
X12144Y7902D01*
X11969Y7975D01*
X11780Y7975D01*
X11685Y7936D01*
X11685Y8277D01*
X11685Y8349D01*
X11685Y8822D01*
X11658Y8888D01*
X11607Y8938D01*
X11541Y8966D01*
X11470Y8966D01*
X10958Y8966D01*
X10892Y8938D01*
X10841Y8888D01*
X10814Y8822D01*
X10814Y8790D01*
X10185Y8790D01*
X10185Y8822D01*
X10185Y9177D01*
X10185Y9345D01*
X10185Y9555D01*
X10185Y9722D01*
X10158Y9788D01*
X10107Y9838D01*
X10041Y9866D01*
X9970Y9866D01*
X9855Y9866D01*
X9810Y9821D01*
X9810Y9510D01*
X10140Y9510D01*
X10185Y9555D01*
X10185Y9345D01*
X10140Y9390D01*
X9810Y9390D01*
X9810Y9078D01*
X9855Y9033D01*
X9970Y9033D01*
X10041Y9033D01*
X10107Y9061D01*
X10158Y9111D01*
X10185Y9177D01*
X10185Y8822D01*
X10158Y8888D01*
X10107Y8938D01*
X10041Y8966D01*
X9970Y8966D01*
X9690Y8966D01*
X9690Y9078D01*
X9690Y9390D01*
X9690Y9510D01*
X9690Y9821D01*
X9645Y9866D01*
X9529Y9866D01*
X9458Y9866D01*
X9392Y9838D01*
X9341Y9788D01*
X9314Y9722D01*
X9314Y9555D01*
X9359Y9510D01*
X9690Y9510D01*
X9690Y9390D01*
X9359Y9390D01*
X9314Y9345D01*
X9314Y9177D01*
X9341Y9111D01*
X9392Y9061D01*
X9458Y9033D01*
X9529Y9033D01*
X9645Y9033D01*
X9690Y9078D01*
X9690Y8966D01*
X9458Y8966D01*
X9392Y8938D01*
X9341Y8888D01*
X9314Y8822D01*
X9314Y8790D01*
X8685Y8790D01*
X8685Y8822D01*
X8658Y8888D01*
X8607Y8938D01*
X8541Y8966D01*
X8470Y8966D01*
X8173Y8966D01*
X8105Y9033D01*
X8541Y9033D01*
X8607Y9061D01*
X8658Y9111D01*
X8685Y9177D01*
X8685Y9249D01*
X8685Y9546D01*
X9044Y9905D01*
X9096Y9983D01*
X9115Y10075D01*
X9115Y10084D01*
X9143Y10096D01*
X9277Y10230D01*
X9350Y10405D01*
X9350Y10594D01*
X9281Y10760D01*
X9468Y10760D01*
X9399Y10594D01*
X9399Y10405D01*
X9471Y10231D01*
X9605Y10097D01*
X9780Y10024D01*
X9969Y10024D01*
X10143Y10096D01*
X10277Y10230D01*
X10350Y10405D01*
X10350Y10594D01*
X10286Y10749D01*
X10411Y10623D01*
X10399Y10594D01*
X10399Y10405D01*
X10471Y10231D01*
X10605Y10097D01*
X10780Y10024D01*
X10969Y10024D01*
X11143Y10096D01*
X11277Y10230D01*
X11350Y10405D01*
X11350Y10594D01*
X11278Y10768D01*
X11144Y10902D01*
X10969Y10975D01*
X10780Y10975D01*
X10751Y10963D01*
X10544Y11169D01*
X10466Y11221D01*
X10375Y11240D01*
X8375Y11240D01*
X8283Y11221D01*
X8205Y11169D01*
X7998Y10963D01*
X7969Y10975D01*
X7780Y10975D01*
X7606Y10903D01*
X7472Y10769D01*
X7399Y10594D01*
X7399Y10405D01*
X7468Y10240D01*
X7281Y10240D01*
X7350Y10405D01*
X7350Y10594D01*
X7278Y10768D01*
X7144Y10902D01*
X6969Y10975D01*
X6780Y10975D01*
X6606Y10903D01*
X6472Y10769D01*
X6399Y10594D01*
X6399Y10405D01*
X6463Y10250D01*
X6338Y10376D01*
X6350Y10405D01*
X6350Y10594D01*
X6278Y10768D01*
X6144Y10902D01*
X5969Y10975D01*
X5780Y10975D01*
X5609Y10904D01*
X5596Y10966D01*
X5544Y11044D01*
X5047Y11541D01*
X5576Y11760D01*
X6237Y12419D01*
X6594Y13281D01*
X6595Y14214D01*
X6239Y15076D01*
X5580Y15737D01*
X4718Y16094D01*
X3785Y16095D01*
X2923Y15739D01*
X2262Y15080D01*
X1905Y14218D01*
X1904Y13285D01*
X2260Y12423D01*
X2919Y11762D01*
X3781Y11405D01*
X4506Y11404D01*
X4935Y10975D01*
X4780Y10975D01*
X4606Y10903D01*
X4517Y10814D01*
X2984Y10814D01*
X2903Y11010D01*
X2687Y11227D01*
X2403Y11345D01*
X2097Y11345D01*
X1814Y11228D01*
X1597Y11011D01*
X1479Y10728D01*
X1479Y10422D01*
X1596Y10138D01*
X1812Y9921D01*
X2096Y9804D01*
X2402Y9804D01*
X2685Y9921D01*
X2902Y10137D01*
X2984Y10334D01*
X4429Y10334D01*
X4471Y10231D01*
X4605Y10097D01*
X4635Y10085D01*
X4635Y9825D01*
X4653Y9733D01*
X4705Y9655D01*
X4814Y9546D01*
X4814Y9177D01*
X4841Y9111D01*
X4892Y9061D01*
X4958Y9033D01*
X5029Y9033D01*
X5541Y9033D01*
X5607Y9061D01*
X5658Y9111D01*
X5685Y9177D01*
X5685Y9249D01*
X5685Y9599D01*
X6005Y9280D01*
X6083Y9228D01*
X6175Y9210D01*
X6314Y9210D01*
X6314Y9177D01*
X6341Y9111D01*
X6392Y9061D01*
X6458Y9033D01*
X6529Y9033D01*
X7039Y9033D01*
X6972Y8966D01*
X6970Y8966D01*
X6458Y8966D01*
X6392Y8938D01*
X6341Y8888D01*
X6314Y8822D01*
X6314Y8750D01*
X6314Y8277D01*
X6341Y8211D01*
X6392Y8161D01*
X6458Y8133D01*
X6529Y8133D01*
X7041Y8133D01*
X7107Y8161D01*
X7158Y8211D01*
X7185Y8277D01*
X7185Y8349D01*
X7185Y8357D01*
X7219Y8380D01*
X7240Y8400D01*
X7319Y8400D01*
X7447Y8453D01*
X7545Y8551D01*
X7599Y8680D01*
X7599Y8819D01*
X7569Y8890D01*
X7814Y8646D01*
X7814Y8277D01*
X7841Y8211D01*
X7892Y8161D01*
X7958Y8133D01*
X8029Y8133D01*
X8541Y8133D01*
X8607Y8161D01*
X8658Y8211D01*
X8685Y8277D01*
X8685Y8310D01*
X9314Y8310D01*
X9314Y8277D01*
X9341Y8211D01*
X9392Y8161D01*
X9458Y8133D01*
X9529Y8133D01*
X10041Y8133D01*
X10107Y8161D01*
X10158Y8211D01*
X10185Y8277D01*
X10185Y8310D01*
X10814Y8310D01*
X10814Y8277D01*
X10841Y8211D01*
X10892Y8161D01*
X10958Y8133D01*
X11029Y8133D01*
X11541Y8133D01*
X11607Y8161D01*
X11658Y8211D01*
X11685Y8277D01*
X11685Y7936D01*
X11606Y7903D01*
X11472Y7769D01*
X11399Y7594D01*
X11399Y7405D01*
X11471Y7231D01*
X11605Y7097D01*
X11780Y7024D01*
X11969Y7024D01*
X12143Y7096D01*
X12277Y7230D01*
X12350Y7405D01*
X12350Y7594D01*
X12350Y560D01*
X11356Y560D01*
X11356Y7446D01*
X11340Y7634D01*
X11299Y7734D01*
X11225Y7765D01*
X11140Y7680D01*
X11140Y7850D01*
X11109Y7924D01*
X10928Y7981D01*
X10740Y7965D01*
X10640Y7924D01*
X10609Y7850D01*
X10875Y7584D01*
X11140Y7850D01*
X11140Y7680D01*
X10959Y7500D01*
X11225Y7234D01*
X11299Y7265D01*
X11356Y7446D01*
X11356Y560D01*
X11140Y560D01*
X11140Y7149D01*
X10875Y7415D01*
X10790Y7330D01*
X10790Y7500D01*
X10524Y7765D01*
X10450Y7734D01*
X10393Y7553D01*
X10409Y7365D01*
X10450Y7265D01*
X10524Y7234D01*
X10790Y7500D01*
X10790Y7330D01*
X10609Y7149D01*
X10640Y7075D01*
X10821Y7018D01*
X11009Y7034D01*
X11109Y7075D01*
X11140Y7149D01*
X11140Y560D01*
X10350Y560D01*
X10350Y7594D01*
X10278Y7768D01*
X10144Y7902D01*
X9969Y7975D01*
X9780Y7975D01*
X9606Y7903D01*
X9472Y7769D01*
X9399Y7594D01*
X9399Y7405D01*
X9471Y7231D01*
X9605Y7097D01*
X9780Y7024D01*
X9969Y7024D01*
X10143Y7096D01*
X10277Y7230D01*
X10350Y7405D01*
X10350Y7594D01*
X10350Y560D01*
X9350Y560D01*
X9350Y7594D01*
X9278Y7768D01*
X9144Y7902D01*
X8969Y7975D01*
X8780Y7975D01*
X8606Y7903D01*
X8472Y7769D01*
X8399Y7594D01*
X8399Y7405D01*
X8471Y7231D01*
X8605Y7097D01*
X8780Y7024D01*
X8969Y7024D01*
X9143Y7096D01*
X9277Y7230D01*
X9350Y7405D01*
X9350Y7594D01*
X9350Y560D01*
X8398Y560D01*
X8398Y5389D01*
X8350Y5506D01*
X8350Y7594D01*
X8278Y7768D01*
X8144Y7902D01*
X7969Y7975D01*
X7780Y7975D01*
X7606Y7903D01*
X7472Y7769D01*
X7399Y7594D01*
X7399Y7405D01*
X7471Y7231D01*
X7605Y7097D01*
X7780Y7024D01*
X7969Y7024D01*
X8143Y7096D01*
X8277Y7230D01*
X8350Y7405D01*
X8350Y7594D01*
X8350Y5506D01*
X8296Y5636D01*
X8107Y5825D01*
X7860Y5927D01*
X7593Y5928D01*
X7350Y5827D01*
X7350Y7594D01*
X7278Y7768D01*
X7144Y7902D01*
X6969Y7975D01*
X6780Y7975D01*
X6606Y7903D01*
X6472Y7769D01*
X6399Y7594D01*
X6399Y7405D01*
X6471Y7231D01*
X6605Y7097D01*
X6780Y7024D01*
X6969Y7024D01*
X7143Y7096D01*
X7277Y7230D01*
X7350Y7405D01*
X7350Y7594D01*
X7350Y5827D01*
X7346Y5826D01*
X7157Y5637D01*
X7098Y5495D01*
X6350Y5495D01*
X6350Y7594D01*
X6278Y7768D01*
X6144Y7902D01*
X5969Y7975D01*
X5780Y7975D01*
X5685Y7936D01*
X5685Y8277D01*
X5685Y8445D01*
X5685Y8655D01*
X5685Y8822D01*
X5658Y8888D01*
X5607Y8938D01*
X5541Y8966D01*
X5470Y8966D01*
X5355Y8966D01*
X5310Y8921D01*
X5310Y8610D01*
X5640Y8610D01*
X5685Y8655D01*
X5685Y8445D01*
X5640Y8490D01*
X5310Y8490D01*
X5310Y8178D01*
X5355Y8133D01*
X5470Y8133D01*
X5541Y8133D01*
X5607Y8161D01*
X5658Y8211D01*
X5685Y8277D01*
X5685Y7936D01*
X5606Y7903D01*
X5472Y7769D01*
X5399Y7594D01*
X5399Y7405D01*
X5471Y7231D01*
X5605Y7097D01*
X5780Y7024D01*
X5969Y7024D01*
X6143Y7096D01*
X6277Y7230D01*
X6350Y7405D01*
X6350Y7594D01*
X6350Y5495D01*
X6093Y5495D01*
X5350Y6239D01*
X5350Y7594D01*
X5278Y7768D01*
X5190Y7857D01*
X5190Y8178D01*
X5190Y8490D01*
X5190Y8610D01*
X5190Y8921D01*
X5145Y8966D01*
X5029Y8966D01*
X4958Y8966D01*
X4892Y8938D01*
X4841Y8888D01*
X4814Y8822D01*
X4814Y8655D01*
X4859Y8610D01*
X5190Y8610D01*
X5190Y8490D01*
X4859Y8490D01*
X4814Y8445D01*
X4814Y8277D01*
X4841Y8211D01*
X4892Y8161D01*
X4958Y8133D01*
X5029Y8133D01*
X5145Y8133D01*
X5190Y8178D01*
X5190Y7857D01*
X5144Y7902D01*
X4969Y7975D01*
X4780Y7975D01*
X4606Y7903D01*
X4472Y7769D01*
X4399Y7594D01*
X4399Y7405D01*
X4471Y7231D01*
X4605Y7097D01*
X4780Y7024D01*
X4969Y7024D01*
X5143Y7096D01*
X5277Y7230D01*
X5350Y7405D01*
X5350Y7594D01*
X5350Y6239D01*
X2939Y8650D01*
X3020Y8846D01*
X3020Y9152D01*
X2903Y9435D01*
X2687Y9652D01*
X2403Y9770D01*
X2097Y9770D01*
X1814Y9653D01*
X1597Y9437D01*
X1479Y9153D01*
X1479Y8847D01*
X1596Y8564D01*
X1812Y8347D01*
X2096Y8229D01*
X2402Y8229D01*
X2599Y8310D01*
X5824Y5086D01*
X5902Y5034D01*
X5994Y5015D01*
X7098Y5015D01*
X7156Y4875D01*
X7345Y4686D01*
X7592Y4583D01*
X7859Y4583D01*
X8106Y4685D01*
X8296Y4874D01*
X8398Y5121D01*
X8398Y5389D01*
X8398Y560D01*
X5831Y560D01*
X5831Y1621D01*
X5738Y1846D01*
X5566Y2019D01*
X5340Y2112D01*
X5097Y2113D01*
X4871Y2020D01*
X4699Y1847D01*
X4605Y1622D01*
X4605Y1378D01*
X4698Y1153D01*
X4870Y980D01*
X5096Y887D01*
X5339Y886D01*
X5565Y979D01*
X5737Y1152D01*
X5831Y1377D01*
X5831Y1621D01*
X5831Y560D01*
X3020Y560D01*
X3020Y7577D01*
X2903Y7861D01*
X2687Y8078D01*
X2403Y8195D01*
X2097Y8195D01*
X1814Y8078D01*
X1597Y7862D01*
X1479Y7579D01*
X1479Y7272D01*
X1596Y6989D01*
X1812Y6772D01*
X2096Y6654D01*
X2402Y6654D01*
X2685Y6771D01*
X2902Y6988D01*
X3020Y7271D01*
X3020Y7577D01*
X3020Y560D01*
X1900Y560D01*
X1900Y1413D01*
X1886Y1656D01*
X1820Y1817D01*
X1731Y1865D01*
X1647Y1780D01*
X1647Y1950D01*
X1598Y2038D01*
X1368Y2119D01*
X1124Y2105D01*
X964Y2038D01*
X915Y1950D01*
X1281Y1584D01*
X1647Y1950D01*
X1647Y1780D01*
X1366Y1500D01*
X1731Y1134D01*
X1820Y1182D01*
X1900Y1413D01*
X1900Y560D01*
X1647Y560D01*
X1647Y1049D01*
X1281Y1415D01*
X1196Y1330D01*
X1196Y1500D01*
X831Y1865D01*
X742Y1817D01*
X662Y1586D01*
X676Y1343D01*
X742Y1182D01*
X831Y1134D01*
X1196Y1500D01*
X1196Y1330D01*
X915Y1049D01*
X964Y961D01*
X1194Y880D01*
X1438Y894D01*
X1598Y961D01*
X1647Y1049D01*
X1647Y560D01*
X560Y560D01*
X560Y16190D01*
X15440Y16190D01*
X15440Y560D01*
G54D19*
X7250Y8750D03*
X4250Y13750D03*
X11750Y13750D03*
X2250Y7425D03*
X2250Y9000D03*
X2250Y10574D03*
X12875Y7500D03*
X12875Y10500D03*
X13875Y7500D03*
X13875Y10500D03*
X7875Y10500D03*
X6875Y10500D03*
X5875Y10500D03*
X4875Y10500D03*
X8875Y10500D03*
X9875Y10500D03*
X10875Y10500D03*
X4875Y7500D03*
X5875Y7500D03*
X6875Y7500D03*
X7875Y7500D03*
X8875Y7500D03*
X9875Y7500D03*
X10875Y7500D03*
X5218Y1500D03*
X1281Y1500D03*
X11875Y10500D03*
X11875Y7500D03*
X14545Y1318D03*
X7726Y5255D03*
M02*
