%FSLAX34Y34*%
G04 Gerber Fmt 3.4, Leading zero omitted, Abs format*
G04 (created by PCBNEW (2014-01-30 BZR 4648)-product) date Sun Feb 23 14:33:07 2014*
%MOIN*%
G01*
G70*
G90*
G04 APERTURE LIST*
%ADD10C,0.013780*%
%ADD11C,0.007087*%
%ADD12C,0.005906*%
%ADD13C,0.433071*%
%ADD14C,0.118110*%
%ADD15R,0.051181X0.047244*%
%ADD16C,0.059055*%
%ADD17C,0.086614*%
%ADD18C,0.098425*%
G04 APERTURE END LIST*
G54D10*
G54D11*
X10104Y9393D02*
X10104Y9787D01*
X10104Y9787D02*
X9395Y9787D01*
X9395Y9787D02*
X9395Y9393D01*
X10104Y8606D02*
X10104Y8212D01*
X10104Y8212D02*
X9395Y8212D01*
X9395Y8212D02*
X9395Y8606D01*
X7104Y9393D02*
X7104Y9787D01*
X7104Y9787D02*
X6395Y9787D01*
X6395Y9787D02*
X6395Y9393D01*
X7104Y8606D02*
X7104Y8212D01*
X7104Y8212D02*
X6395Y8212D01*
X6395Y8212D02*
X6395Y8606D01*
X10895Y8606D02*
X10895Y8212D01*
X10895Y8212D02*
X11604Y8212D01*
X11604Y8212D02*
X11604Y8606D01*
X10895Y9393D02*
X10895Y9787D01*
X10895Y9787D02*
X11604Y9787D01*
X11604Y9787D02*
X11604Y9393D01*
X7895Y8606D02*
X7895Y8212D01*
X7895Y8212D02*
X8604Y8212D01*
X8604Y8212D02*
X8604Y8606D01*
X7895Y9393D02*
X7895Y9787D01*
X7895Y9787D02*
X8604Y9787D01*
X8604Y9787D02*
X8604Y9393D01*
X4895Y8606D02*
X4895Y8212D01*
X4895Y8212D02*
X5604Y8212D01*
X5604Y8212D02*
X5604Y8606D01*
X4895Y9393D02*
X4895Y9787D01*
X4895Y9787D02*
X5604Y9787D01*
X5604Y9787D02*
X5604Y9393D01*
X9451Y5787D02*
G75*
G02X8133Y3520I3048J-3287D01*
G74*
G01*
X7557Y6853D02*
X9399Y5790D01*
X6258Y4603D02*
X8099Y3540D01*
X6258Y4603D02*
X7557Y6853D01*
X9265Y9065D02*
X9284Y9084D01*
X9303Y9140D01*
X9303Y9178D01*
X9284Y9234D01*
X9246Y9271D01*
X9209Y9290D01*
X9134Y9309D01*
X9078Y9309D01*
X9003Y9290D01*
X8965Y9271D01*
X8928Y9234D01*
X8909Y9178D01*
X8909Y9140D01*
X8928Y9084D01*
X8946Y9065D01*
X8946Y8915D02*
X8928Y8896D01*
X8909Y8859D01*
X8909Y8765D01*
X8928Y8728D01*
X8946Y8709D01*
X8984Y8690D01*
X9021Y8690D01*
X9078Y8709D01*
X9303Y8934D01*
X9303Y8690D01*
X6303Y9065D02*
X6115Y9196D01*
X6303Y9290D02*
X5909Y9290D01*
X5909Y9140D01*
X5928Y9103D01*
X5946Y9084D01*
X5984Y9065D01*
X6040Y9065D01*
X6078Y9084D01*
X6096Y9103D01*
X6115Y9140D01*
X6115Y9290D01*
X6303Y8690D02*
X6303Y8915D01*
X6303Y8803D02*
X5909Y8803D01*
X5965Y8840D01*
X6003Y8878D01*
X6021Y8915D01*
X10803Y9065D02*
X10615Y9196D01*
X10803Y9290D02*
X10409Y9290D01*
X10409Y9140D01*
X10428Y9103D01*
X10446Y9084D01*
X10484Y9065D01*
X10540Y9065D01*
X10578Y9084D01*
X10596Y9103D01*
X10615Y9140D01*
X10615Y9290D01*
X10446Y8915D02*
X10428Y8896D01*
X10409Y8859D01*
X10409Y8765D01*
X10428Y8728D01*
X10446Y8709D01*
X10484Y8690D01*
X10521Y8690D01*
X10578Y8709D01*
X10803Y8934D01*
X10803Y8690D01*
X7765Y9565D02*
X7784Y9584D01*
X7803Y9640D01*
X7803Y9678D01*
X7784Y9734D01*
X7746Y9771D01*
X7709Y9790D01*
X7634Y9809D01*
X7578Y9809D01*
X7503Y9790D01*
X7465Y9771D01*
X7428Y9734D01*
X7409Y9678D01*
X7409Y9640D01*
X7428Y9584D01*
X7446Y9565D01*
X7803Y9190D02*
X7803Y9415D01*
X7803Y9303D02*
X7409Y9303D01*
X7465Y9340D01*
X7503Y9378D01*
X7521Y9415D01*
X4765Y9065D02*
X4784Y9084D01*
X4803Y9140D01*
X4803Y9178D01*
X4784Y9234D01*
X4746Y9271D01*
X4709Y9290D01*
X4634Y9309D01*
X4578Y9309D01*
X4503Y9290D01*
X4465Y9271D01*
X4428Y9234D01*
X4409Y9178D01*
X4409Y9140D01*
X4428Y9084D01*
X4446Y9065D01*
X4409Y8934D02*
X4409Y8690D01*
X4559Y8821D01*
X4559Y8765D01*
X4578Y8728D01*
X4596Y8709D01*
X4634Y8690D01*
X4728Y8690D01*
X4765Y8709D01*
X4784Y8728D01*
X4803Y8765D01*
X4803Y8878D01*
X4784Y8915D01*
X4765Y8934D01*
G54D12*
X13653Y2191D02*
X13641Y2133D01*
X13648Y2107D01*
X13671Y2072D01*
X13719Y2044D01*
X13761Y2042D01*
X13787Y2048D01*
X13822Y2072D01*
X13897Y2201D01*
X13556Y2398D01*
X13490Y2285D01*
X13488Y2243D01*
X13495Y2217D01*
X13518Y2182D01*
X13550Y2163D01*
X13592Y2161D01*
X13618Y2168D01*
X13653Y2191D01*
X13718Y2305D01*
X13387Y2106D02*
X13275Y1911D01*
X13672Y1812D02*
X13331Y2009D01*
X13447Y1422D02*
X13559Y1617D01*
X13503Y1520D02*
X13162Y1716D01*
X13230Y1721D01*
X13281Y1734D01*
X13316Y1758D01*
%LPC*%
G54D13*
X4250Y13750D03*
X11750Y13750D03*
G54D14*
X2250Y7425D03*
X2250Y9000D03*
X2250Y10574D03*
G54D15*
X9750Y8550D03*
X9750Y9450D03*
G54D16*
X12875Y7500D03*
X12875Y10500D03*
X13875Y7500D03*
X13875Y10500D03*
G54D15*
X6750Y8550D03*
X6750Y9450D03*
X11250Y9450D03*
X11250Y8550D03*
G54D16*
X7875Y10500D03*
X6875Y10500D03*
X5875Y10500D03*
X4875Y10500D03*
X8875Y10500D03*
X9875Y10500D03*
X10875Y10500D03*
X4875Y7500D03*
X5875Y7500D03*
X6875Y7500D03*
X7875Y7500D03*
X8875Y7500D03*
X9875Y7500D03*
X10875Y7500D03*
G54D15*
X8250Y9450D03*
X8250Y8550D03*
X5250Y9450D03*
X5250Y8550D03*
G54D17*
X5218Y1500D03*
X1281Y1500D03*
G54D16*
X11875Y10500D03*
X11875Y7500D03*
G54D18*
X14545Y1318D03*
X7726Y5255D03*
M02*
