M48
;DRILL file {Pcbnew (2014-01-30 BZR 4648)-product} date Ne 23. únor 2014, 14:30:26 CET
;FORMAT={-:-/ absolute / metric / decimal}
FMAT,2
METRIC,TZ
T1C0.400
T2C0.800
T3C1.000
T4C1.200
T5C2.000
T6C6.000
%
G90
G05
M71
T1
X18.732Y22.543
T2
X12.383Y26.67
X12.383Y19.05
X14.922Y26.67
X14.922Y19.05
X17.462Y26.67
X17.462Y19.05
X20.002Y26.67
X20.002Y19.05
X22.543Y26.67
X22.543Y19.05
X25.082Y26.67
X25.082Y19.05
X27.622Y26.67
X27.622Y19.05
X30.162Y26.67
X30.162Y19.05
X32.703Y26.67
X32.703Y19.05
X35.242Y26.67
X35.242Y19.05
T3
X3.255Y3.81
X13.255Y3.81
T4
X19.626Y13.35
X36.946Y3.35
T5
X5.715Y26.86
X5.715Y22.86
X5.715Y18.86
T6
X10.795Y34.925
X29.845Y34.925
T0
M30
